<?xml version="1.0" encoding="UTF-8" standalone="no"?>
<svg
   id="svg4"
   width="100"
   height="100"
   fill="none"
   version="1.1"
   viewBox="0 0 100 100"
   sodipodi:docname="rv_pref_activeness.svg"
   inkscape:version="1.2.2 (b0a8486541, 2022-12-01)"
   xmlns:inkscape="http://www.inkscape.org/namespaces/inkscape"
   xmlns:sodipodi="http://sodipodi.sourceforge.net/DTD/sodipodi-0.dtd"
   xmlns="http://www.w3.org/2000/svg"
   xmlns:svg="http://www.w3.org/2000/svg">
  <defs
     id="defs19" />
  <sodipodi:namedview
     id="namedview17"
     pagecolor="#ffffff"
     bordercolor="#000000"
     borderopacity="0.25"
     inkscape:showpageshadow="2"
     inkscape:pageopacity="0.0"
     inkscape:pagecheckerboard="0"
     inkscape:deskcolor="#d1d1d1"
     showgrid="false"
     inkscape:zoom="8.42"
     inkscape:cx="47.446556"
     inkscape:cy="50.059382"
     inkscape:window-width="1920"
     inkscape:window-height="995"
     inkscape:window-x="0"
     inkscape:window-y="0"
     inkscape:window-maximized="1"
     inkscape:current-layer="svg4" />
  <g
     id="bold"
     transform="matrix(4.6339 0 0 4.6339 -2.4432 -14.345)">
    <path
       id="path7918"
       d="m9.1074 5.9922c-0.31413 7.1e-4 -0.62412 0.074747-0.9043 0.2168l0.9043 1.7832h2.4531l-4.6367 8.0078 0.9375 1.7617c0.020479-0.01089 0.042368-0.01963 0.0625-0.03125 0.304-0.1755 0.55638-0.42687 0.73242-0.73047l1.6465-2.8516 2.6211 2.6211 1.8105-0.84375c-0.09765-0.20959-0.23029-0.40314-0.39648-0.57031l-2.998-2.998 2.1699-3.7383 1.7871 1.793c0.18839 0.18804 0.40959 0.33372 0.65039 0.43359l0.76367-1.8457-2.4121-2.4199c-0.3759-0.37513-0.88492-0.58644-1.416-0.58789z"
       fill="#000" />
    <g
       id="g7937"
       fill="#00ff00"
       style="display:inline">
      <path
         id="path861"
         d="M 7.8613,17.762 6.9238,16.0003 H 2.5 a 0.5,0.5 0 0 0 -0.5,0.5 v 1 a 0.5,0.5 0 0 0 0.5,0.5 h 4.4238 c 0.32776,-5.6e-4 0.64874,-0.08469 0.9375,-0.23828 z" />
      <path
         id="path7120"
         d="m 14.734,15.926 -1.8105,0.84375 v 4.5098 a 0.5,0.5 0 0 0 0.5,0.5 h 1 a 0.5,0.5 0 0 0 0.5,-0.5 v -4.5098 C 14.922722,16.47512 14.85607,16.18792 14.73405,15.926 Z" />
      <path
         id="path7921"
         d="m 16.711,9 -0.76367,1.8457 C 16.187,10.94511 16.44608,10.99915 16.711,11 h 3.4238 a 0.5,0.5 0 0 0 0.5,-0.5 v -1 a 0.5,0.5 0 0 0 -0.5,-0.5 z" />
      <path
         id="path7927"
         d="M 8.2031,6.209 C 7.92291,6.35104 7.68036,6.55759 7.49412,6.81056 l -1.9043,2.5957 a 0.49991,0.49991 0 0 0 0.10742,0.69922 l 0.80664,0.5918 A 0.50013,0.50013 0 0 0 7.2031,10.58986 l 1.9043,-2.5977 z" />
    </g>
  </g>
  <g
     id="slim"
     transform="matrix(4.6339,0,0,4.6339,0.34891,6.4477)"
     style="display:inline">
    <g
       id="g20321"
       transform="translate(-0.60352,-4.612)"
       fill="#0000ff">
      <path
         id="path16169"
         d="m 14.561,16.092 -1.3867,0.57226 v 4.6152 a 0.5,0.5 0 0 0 0.5,0.5 h 0.5 a 0.5,0.5 0 0 0 0.5,-0.5 v -4.6152 c 3e-4,-0.1967 -0.03808,-0.39056 -0.11328,-0.57226 z" />
      <path
         id="path20305"
         d="M 7.8184,17.551 7.07426,16.2502 h -4.5742 a 0.5,0.5 0 0 0 -0.5,0.5 v 0.5 a 0.5,0.5 0 0 0 0.5,0.5 h 4.5742 C 7.33574,17.75 7.59198,17.68168 7.8184,17.55098 Z" />
      <path
         id="path20308"
         d="M 8.3008,6.4043 C 8.09283,6.50993 7.91189,6.66382 7.77346,6.85157 l -1.9824,2.7031 a 0.50004,0.50004 0 0 0 0.10742,0.69727 l 0.4043,0.29688 A 0.49951,0.49951 0 0 0 7.00005,10.4414 l 1.9766,-2.6992 z" />
      <path
         id="path20311"
         d="m 16.615,9.2578 -0.57226,1.3828 c 0.17442,0.07069 0.36258,0.10893 0.55469,0.10938 h 3.5391 a 0.5,0.5 0 0 0 0.5,-0.5 v -0.5 a 0.49903,0.49903 0 0 0 -0.5,-0.49805 z" />
    </g>
    <path
       id="path20314"
       d="M 8.373,1.6302 C 8.13917,1.63072 7.90777,1.68666 7.69917,1.79231 H 7.69722 L 8.373,3.13021 h 3.0195 l -4.9219,8.5078 0.74414,1.3008 h 0.00195 c 0.22579,-0.13076 0.41243,-0.31899 0.54297,-0.54492 l 1.8867,-3.2656 2.9238,2.9238 1.3867,-0.57226 c -0.0753,-0.1817 -0.18502,-0.34753 -0.32422,-0.48633 l -3.209,-3.207 2.4297,-4.1855 2.0977,2.1055 c 0.14119,0.14063 0.30735,0.24894 0.48828,0.32227 l 0.57226,-1.3828 -2.4922,-2.5 C 13.19048,1.81751 12.74394,1.63149 12.27918,1.63035 Z"
       fill="#000000" />
  </g>
</svg>
