<?xml version="1.0" encoding="UTF-8"?>
<svg id="svg36553" width="100" height="100" fill="none" version="1.1" viewBox="0 0 100 100" xml:space="preserve" xmlns="http://www.w3.org/2000/svg"><g id="g70239" transform="matrix(4.3549 0 0 4.3549 1.0015 24.423)"><path id="path69504" d="m11.252 3.2051c-0.72155 0-1.4371 0.086836-2.1309 0.25586-0.26825 0.065355-0.69767 0.19437-0.95703 0.28906-0.67075 0.2449-1.3122 0.56982-1.9121 0.9707-0.59995 0.40088-1.146 0.87051-1.6289 1.3965-0.18674 0.20338-0.47173 0.55061-0.63477 0.77344-0.25669 0.35082-0.48529 0.7214-0.68945 1.1074h2.3613c0.19637-0.26106 0.40975-0.51131 0.64258-0.74414 0.37037-0.37037 0.77815-0.69429 1.2168-0.9707 0.23357-0.14719 0.62871-0.36022 0.88086-0.47266 0.47353-0.21115 0.97259-0.36852 1.4863-0.4707 0.5137-0.10218 1.0345-0.14668 1.5527-0.13281 0.27598 0.00739 0.72202 0.051058 0.99414 0.097656 0.51104 0.087511 1.0122 0.23315 1.4961 0.43359 0.48392 0.20044 0.942 0.45248 1.3652 0.75195 0.22537 0.15947 0.57111 0.44484 0.77148 0.63477 0.28287 0.26812 0.54552 0.55951 0.78125 0.87305h2.3594c-0.41629-0.78728-0.95053-1.5169-1.5918-2.1582-0.72382-0.72379-1.5576-1.3108-2.4629-1.7461-0.24883-0.11966-0.66327-0.29147-0.92383-0.38281-0.94792-0.33229-1.9529-0.50586-2.9766-0.50586z" fill="#000"/><g fill="#0f0"><path id="path69502" d="m15.969 0.14453c-0.19305 0.005916-0.37253 0.13155-0.44336 0.32617l-0.34375 0.93945c-0.09444 0.25949 0.04018 0.5458 0.29492 0.65234 0.87768 0.36711 1.6998 0.84443 2.4473 1.416 0.21934 0.16773 0.56235 0.45571 0.76562 0.64258 0.69273 0.63682 1.3044 1.3615 1.8184 2.1621 0.14917 0.23236 0.45421 0.3158 0.69336 0.17773h2e-3l0.86714-0.50195c0.23916-0.13806 0.32124-0.44425 0.17383-0.67773-0.63346-1.0034-1.3966-1.9096-2.2656-2.6973-0.2046-0.18543-0.54741-0.47143-0.76562-0.64062-0.92688-0.71865-1.9524-1.3145-3.0508-1.7637-0.063895-0.026128-0.12901-0.037128-0.19336-0.035156z"/><path id="path51106" d="m6.5352 0.14453c-0.064348-0.001971-0.12946 0.009027-0.19336 0.035156-1.0984 0.44916-2.1239 1.045-3.0508 1.7637-0.21821 0.1692-0.56103 0.45714-0.76562 0.64258-0.86903 0.78766-1.6341 1.6919-2.2676 2.6953-0.1474 0.23349-0.063394 0.53971 0.17578 0.67773v0.00195l0.86719 0.5c0.23918 0.13802 0.54419 0.054625 0.69336-0.17773 0.51396-0.80057 1.1276-1.5253 1.8203-2.1621 0.20327-0.18687 0.54629-0.47485 0.76562-0.64258 0.74743-0.57158 1.5677-1.0489 2.4453-1.416 0.25473-0.10655 0.38934-0.39284 0.29492-0.65234a0.49985 0 70.007 0 0-0.3418-0.93945c-0.070814-0.19462-0.25031-0.32026-0.44336-0.32617z"/><g id="g69498" stroke-dashoffset="4.5" stroke-miterlimit="3.8" stroke-width=".05"><path id="rect68018" d="m15.837 9.6022h1.5a0.5 0.5 45 0 1 0.5 0.5v1a0.5 0.5 135 0 1-0.5 0.5h-1.5a0.5 0.5 45 0 1-0.5-0.5v-1a0.5 0.5 135 0 1 0.5-0.5z"/><path id="rect68022" d="m10.502 9.6022h1.5a0.5 0.5 45 0 1 0.5 0.5v1a0.5 0.5 135 0 1-0.5 0.5h-1.5a0.5 0.5 45 0 1-0.5-0.5v-1a0.5 0.5 135 0 1 0.5-0.5z"/><path id="rect68028" d="m5.1659 9.6022h1.5a0.5 0.5 45 0 1 0.5 0.5v1a0.5 0.5 135 0 1-0.5 0.5h-1.5a0.5 0.5 45 0 1-0.5-0.5v-1a0.5 0.5 135 0 1 0.5-0.5z"/></g></g></g><g id="g66443" transform="matrix(4.3549 0 0 4.3549 1.0007 25.226)"><path id="path65708" d="m11.237 3.2031c-1.2409 0-2.4227 0.25223-3.4981 0.70703-1.0752 0.45481-2.0442 1.1126-2.8574 1.9258-0.62835 0.62835-1.1279 1.3707-1.5488 2.1621h1.6973c0.26825-0.39625 0.57491-0.76632 0.91212-1.1035 0.6777-0.6777 1.4848-1.2264 2.3809-1.6054 0.89608-0.37901 1.88-0.5879 2.9141-0.5879s2.02 0.20889 2.9161 0.5879c0.89608 0.37901 1.7032 0.92778 2.3809 1.6054 0.33719 0.33719 0.64191 0.70726 0.91016 1.1035h1.6973c-0.42091-0.79134-0.92048-1.5337-1.5488-2.1621-0.81324-0.81324-1.7822-1.471-2.8574-1.9258-1.0752-0.45481-2.257-0.70703-3.4981-0.70703z" fill="#000" stroke-width=".3397"/><g fill="#00f"><path id="path65706" d="m15.845 0.046877c-0.11597 0.0044869-0.22141 0.078636-0.26367 0.19532l-0.32422 0.89063c-0.05635 0.15557 0.0256 0.32644 0.17969 0.38672 2.3418 0.91614 4.3158 2.5787 5.6172 4.7305 0.08563 0.14158 0.26823 0.19303 0.41211 0.11133l0.80079-0.45507c0.14388-0.081696 0.19616-0.26615 0.11133-0.40821-1.4765-2.4723-3.7345-4.3824-6.416-5.4317-0.03852-0.015073-0.078531-0.021027-0.11719-0.019532z" stroke-width=".3397"/><path id="path2029" d="m6.6563 0.025396c-0.038658-0.0014957-0.078668 0.0064115-0.11719 0.021484-2.6816 1.0493-4.9376 2.9594-6.4141 5.4317-0.084837 0.14205-0.034511 0.32455 0.10937 0.40625l0.80079 0.45507c0.14389 0.081697 0.32648 0.032202 0.41211-0.10937 1.3014-2.1518 3.2773-3.8143 5.6192-4.7305 0.15408-0.060278 0.23408-0.2331 0.17774-0.38867l-0.32226-0.88868c-0.042263-0.11668-0.14966-0.19278-0.26562-0.19726z" stroke-width=".3397"/><g id="g66449" stroke-dashoffset="4.5" stroke-miterlimit="3.8" stroke-width=".05"><path id="rect64236" d="m10.714 9.8522h1.075a0.4 0.4 45 0 1 0.4 0.4v0.7a0.4 0.4 135 0 1-0.4 0.4h-1.075a0.4 0.4 45 0 1-0.4-0.4v-0.7a0.4 0.4 135 0 1 0.4-0.4z"/><path id="rect65692" d="m16.05 9.8522h1.075a0.4 0.4 45 0 1 0.4 0.4v0.7a0.4 0.4 135 0 1-0.4 0.4h-1.075a0.4 0.4 45 0 1-0.4-0.4v-0.7a0.4 0.4 135 0 1 0.4-0.4z"/><path id="rect65698" d="m5.3785 9.8522h1.075a0.4 0.4 45 0 1 0.4 0.4v0.7a0.4 0.4 135 0 1-0.4 0.4h-1.075a0.4 0.4 45 0 1-0.4-0.4v-0.7a0.4 0.4 135 0 1 0.4-0.4z"/></g></g></g></svg>
