<?xml version="1.0" encoding="UTF-8"?>
<!-- Created with Inkscape (http://www.inkscape.org/) -->
<svg id="svg5" width="1021.8" height="665.06" version="1.1" viewBox="0 0 1021.8 665.06" xmlns="http://www.w3.org/2000/svg">
<g id="layer1" transform="translate(-730.22 -87.748)" fill="none" stroke="#0f0" stroke-miterlimit="3.8" style="mix-blend-mode:normal">
<path id="path16255" d="m1694.4 255.35c4.2024 1.8112 2.7955 0.8169 6.6239 2.4362 7.6568 3.2385 14.552 7.9249 20.343 13.716 5.7909 5.7909 10.477 12.686 13.716 20.343 3.2385 7.6569 5.0294 16.075 5.0294 24.912l-3e-4 360.14c0 35.346-28.654 64-64 64h-870c-35.346 0-64-28.654-64-64l3e-4 -360.14c3e-5 -35.346 28.654-64 64-64h435l110.24 0.0405" stroke-dasharray="67.2, 11.2" stroke-dashoffset="68.32" stroke-width="11.2"/>
<path id="path16421-7" d="m1351.4 252.8c35.346-0.0227 63.982-28.695 63.959-64.041v-70.146c0-10.493 8.5066-19 19-19h202c10.493 0 19 8.5066 19 19l-7e-4 70.146c0 8.8366 1.7909 24.878 5.0295 32.535 3.2385 7.6568 7.9249 14.552 13.716 20.343 5.7909 5.7909 12.686 10.477 20.343 13.716" stroke-dasharray="65.4, 10.9" stroke-dashoffset="6.54" stroke-width="10.9"/>
</g>
</svg>
