<?xml version="1.0" encoding="UTF-8"?>
<svg id="svg4" width="100" height="100" fill="none" version="1.1" viewBox="0 0 100 100" xml:space="preserve" xmlns="http://www.w3.org/2000/svg"><g id="g6" transform="matrix(.82646 0 0 .82646 8.6768 8.677)" stroke-width="4.45"><path id="ears_bold" d="m90.863 30.693-5.7974 5.3657c-0.20266 0.18757-0.21389 0.50304-0.03082 0.70977 3.2277 3.6449 5.0155 8.3497 5.0155 13.23 0 4.8804-1.7878 9.5851-5.0155 13.23-0.18307 0.20673-0.17189 0.52225 0.03071 0.70989l5.7976 5.3694c0.2026 0.18764 0.51958 0.17607 0.70404-0.02942 4.7498-5.2914 7.3832-12.155 7.3832-19.278 0-7.1223-2.6333-13.987-7.3832-19.278-0.18446-0.20549-0.5015-0.21711-0.70416-0.02954zm-82.429 0.02954c-4.7498 5.2912-7.3832 12.155-7.3832 19.278 0 7.1224 2.6334 13.986 7.3832 19.278 0.18446 0.20549 0.50145 0.21706 0.70405 0.02943l5.7976-5.3694c0.2026-0.18764 0.21378-0.50316 0.03072-0.70989-3.2276-3.6449-5.0154-8.3497-5.0154-13.23 0-4.8799 1.7879-9.5847 5.0154-13.23 0.18306-0.20673 0.17183-0.5222-0.03083-0.70977l-5.7974-5.3657c-0.20266-0.18757-0.5197-0.17595-0.70416 0.02954z" fill="#0f0"/><path id="ears_slim" d="m88.761 35.106c3.6917 4.0766 5.7397 9.387 5.7397 14.894s-2.048 10.813-5.7397 14.889c-0.11122 0.12281-0.10439 0.31233 0.0171 0.42499l2.8233 2.6181c0.12149 0.11266 0.31157 0.10574 0.42303-0.01685 4.4539-4.899 6.9255-11.285 6.9255-17.913s-2.4716-13.018-6.9255-17.918c-0.11146-0.1226-0.30161-0.12958-0.42318-0.01701-0.71964 0.66636-2.0616 1.9089-2.823 2.6139-0.12157 0.11257-0.12847 0.30202-0.01725 0.42482zm-80.785-3.0217c-4.4539 4.8989-6.9255 11.285-6.9255 17.913s2.4717 13.014 6.9255 17.913c0.11146 0.12259 0.30154 0.12951 0.42303 0.01685l2.8233-2.6181c0.12149-0.11266 0.12832-0.30218 0.01711-0.42499-3.6916-4.0765-5.7398-9.3826-5.7398-14.889s2.0481-10.813 5.7397-14.889c0.11122-0.12281 0.10432-0.31226-0.01725-0.42483l-2.823-2.6139c-0.12157-0.11257-0.31172-0.10558-0.42318 0.017009z" fill="#00f"/><path id="body_slim" d="m65.575 5.4996h-31.15c-2.9506 0-5.7802 1.1721-7.8666 3.2585s-3.2585 4.9161-3.2585 7.8666v66.751c0 2.9504 1.1721 5.7802 3.2585 7.8668 2.0864 2.0862 4.916 3.2583 7.8666 3.2583h31.15c2.9504 0 5.7802-1.1721 7.8668-3.2583 2.0862-2.0866 3.2583-4.9164 3.2583-7.8668v-66.751c0-2.9506-1.1721-5.7803-3.2583-7.8666-2.0866-2.0864-4.9164-3.2585-7.8668-3.2585zm6.6751 77.876c-0.0018 1.7698-0.70578 3.4666-1.9571 4.7179-1.2513 1.2514-2.9481 1.9549-4.7179 1.9571h-31.15c-1.7697-0.0022-3.4664-0.70578-4.7178-1.9571-1.2514-1.2514-1.9553-2.9482-1.9573-4.7179v-66.751c0.0021-1.7697 0.70591-3.4664 1.9573-4.7178 1.2514-1.2514 2.9481-1.9553 4.7178-1.9573h31.15c1.7698 2e-3 3.4666 0.70591 4.7179 1.9573 1.2514 1.2514 1.9553 2.948 1.9571 4.7178z" fill="#000"/><path id="body_bold" d="m65.575 5.4996h-31.15c-2.9506 0-5.7802 1.1721-7.8666 3.2585s-3.2585 4.9161-3.2585 7.8666v66.751c0 2.9504 1.1721 5.7802 3.2585 7.8668 2.0864 2.0862 4.916 3.2583 7.8666 3.2583h31.15c2.9504 0 5.7802-1.1721 7.8668-3.2583 2.0862-2.0866 3.2583-4.9164 3.2583-7.8668v-66.751c0-2.9506-1.1721-5.7803-3.2583-7.8666-2.0866-2.0864-4.9164-3.2585-7.8668-3.2585zm2.225 77.876c0 0.59008-0.23452 1.1561-0.65193 1.5735-0.41697 0.41697-0.98301 0.65148-1.5731 0.65148h-31.15c-0.59007 0-1.156-0.23452-1.5733-0.65148-0.41728-0.41741-0.65171-0.98346-0.65171-1.5735v-66.751c0-0.59012 0.23443-1.1561 0.65171-1.5733 0.41728-0.41728 0.98324-0.65171 1.5733-0.65171h31.15c0.59007 0 1.1561 0.23443 1.5731 0.65171 0.41741 0.41724 0.65193 0.98319 0.65193 1.5733z" fill="#000"/></g></svg>
