<?xml version="1.0" encoding="UTF-8"?>
<!-- Created with Inkscape (http://www.inkscape.org/) -->
<svg id="svg5" width="22.65" height="55.192" version="1.1" viewBox="0 0 22.65 55.192" xmlns="http://www.w3.org/2000/svg">
<g id="plates_lit" transform="rotate(90 98.242 28.673)" fill="#0f0">
<rect id="lit_bot" x="113.29" y="114.4" width="11.471" height="2.3844" ry=".8"/>
<rect id="lit_mid" x="87.979" y="114.4" width="18.371" height="2.3844" ry=".8"/>
<rect id="lit_top" x="69.569" y="114.4" width="11.471" height="2.3844" ry=".8"/>
</g>
<g id="plates_unlit" transform="rotate(90 98.242 28.673)" fill="#00f" stroke-dasharray="24.464, 9.174" stroke-dashoffset="38.531" stroke-linecap="round" stroke-linejoin="round" stroke-miterlimit="3.8" stroke-width="3.058">
<rect id="unlit_bot" transform="rotate(-90,-2e-6,-2e-6)" x="-116.37" y="113.29" width="1.4548" height="11.471" ry=".45"/>
<rect id="unlit_mid" transform="rotate(-90)" x="-116.32" y="87.98" width="1.4548" height="18.371" ry=".45"/>
<rect id="unlit_top" transform="rotate(-90,-2e-6,-2e-6)" x="-116.37" y="69.569" width="1.4548" height="11.471" ry=".45"/>
</g>
<g id="arrows_bold" transform="translate(.95529)">
<path id="path23360" d="m2.6844 46.636 1.4141-1.416 2.3379-2.3359a0.29 0.29 0 0 1 0.49414 0.20508v5.6719a0.7 0.7 0 0 1-0.69922 0.69922h-5.6719a0.28994 0.28994 0 0 1-0.20508-0.49414z"/>
<path id="path23362" d="m-0.95432 38.386c-0.0127-0.96389 0.0985-1.9281 0.33399-2.8711 0.47101-1.8861 1.4237-3.619 2.7637-5.0273 1.2366-1.2995 2.7645-2.2815 4.4549-2.8687 0.23475-0.08154 0.42792 0.06234 0.42792 0.31086v1.2211c0 0.24853-0.1468 0.49386-0.32031 0.56719-1.3966 0.5905-2.6265 1.514-3.582 2.6914-0.9556 1.1774-1.608 2.5723-1.8984 4.0606-0.29045 1.4883-0.21031 3.0243 0.23242 4.4746 0.44273 1.4502 1.2346 2.7695 2.3066 3.8418l0.42969 0.42969-1.4141 1.416-0.42969-0.43164c-1.3768-1.3725-2.3739-3.0782-2.8945-4.9512-0.2603-0.9365-0.39745-1.8994-0.41016-2.8633z"/>
<path id="path19168" d="m17.954 24.772-1.4141-1.416-2.3379-2.3359a0.29 0.29 0 0 0-0.49414 0.20508v5.6719a0.7 0.7 0 0 0 0.69922 0.69922h5.6719a0.28994 0.28994 0 0 0 0.20508-0.49414z"/>
<path id="path20884" d="m21.694 16.526c0.0127-0.96388-0.0985-1.9281-0.33399-2.8711-0.47101-1.8861-1.4237-3.619-2.7637-5.0273-1.2366-1.2995-2.7645-2.2815-4.4549-2.8687-0.23475-0.08154-0.42792 0.06234-0.42792 0.31086v1.2211c0 0.24853 0.1468 0.49386 0.32031 0.56719 1.3966 0.5905 2.6265 1.514 3.582 2.6914 0.9556 1.1774 1.608 2.5723 1.8984 4.0605 0.29045 1.4883 0.21031 3.0243-0.23242 4.4746-0.44273 1.4502-1.2346 2.7695-2.3066 3.8418l-0.42969 0.42969 1.4141 1.416 0.42969-0.43164c1.3768-1.3725 2.3739-3.0782 2.8945-4.9512 0.2603-0.9365 0.39745-1.8994 0.41016-2.8633z"/>
</g>
<g id="arrows_slim" transform="translate(.95529)">
<path id="path14354" d="m3.5338 47.162 2.9371-2.9371a0.24853 0.24853 0 0 1 0.42426 0.17574v4.4562a0.6 0.6 0 0 1-0.6 0.6h-4.4562a0.24853 0.24853 0 0 1-0.17574-0.42426z"/>
<path id="path15385" d="m6.8951 28.14v0.7957c0 0.22091-0.17135 0.4531-0.37641 0.53524-0.013891 0.0056-0.027747 0.01126-0.04156 0.0171-1.4344 0.6064-2.6984 1.5565-3.6797 2.7656-0.98136 1.2092-1.651 2.6395-1.9492 4.168-0.29826 1.5284-0.21646 3.1083 0.23828 4.5977 0.45474 1.4894 1.2699 2.8442 2.3711 3.9453l1.1367 1.1367-1.0605 1.0605-1.1387-1.1367c-1.274-1.2754-2.2143-2.8442-2.7402-4.5684-0.52591-1.7243-0.62069-3.553-0.27539-5.3223 0.34531-1.7693 1.1202-3.4262 2.2559-4.8262 1.1356-1.4 2.5977-2.5003 4.2578-3.2031 0.20545-0.08684 0.41298-0.16624 0.62226-0.23947 0.20851-0.07295 0.37969 0.05332 0.37969 0.27423z"/>
<path id="path15392" d="m17.205 25.157-2.9371-2.9371a0.24853 0.24853 0 0 0-0.42426 0.17574v4.4562a0.6 0.6 0 0 0 0.6 0.6h4.4562a0.24853 0.24853 0 0 0 0.17574-0.42426z"/>
<path id="path15394" d="m13.844 6.1355v0.7957c0 0.22091 0.17135 0.45311 0.37641 0.53524 0.01389 0.00556 0.02775 0.011257 0.04156 0.017102 1.4344 0.6064 2.6984 1.5565 3.6797 2.7656 0.98136 1.2092 1.651 2.6395 1.9492 4.168 0.29826 1.5284 0.21646 3.1083-0.23828 4.5977s-1.2699 2.8442-2.3711 3.9453l-1.1367 1.1367 1.0605 1.0605 1.1387-1.1367c1.274-1.2754 2.2143-2.8442 2.7402-4.5684 0.52591-1.7243 0.62069-3.553 0.27539-5.3223-0.34531-1.7693-1.1202-3.4262-2.2559-4.8262-1.1356-1.4-2.5977-2.5003-4.2578-3.2031-0.20545-0.086836-0.41298-0.16624-0.62226-0.23947-0.20851-0.072955-0.37969 0.053319-0.37969 0.27423z"/>
</g>
</svg>
