<?xml version="1.0" encoding="UTF-8"?>
<!-- Created with Inkscape (http://www.inkscape.org/) -->
<svg id="svg5" width="100" height="100" version="1.1" viewBox="0 0 100 100" xml:space="preserve" xmlns="http://www.w3.org/2000/svg">
    <path id="path21776" transform="matrix(3.2403 0 0 3.2403 -280.33 -469.64)" d="m110.88 162.02 0.4707-1.832c-0.21567 0.36571-0.45943 0.71306-0.74805 1.0234-0.44319 0.47661-0.9826 0.85602-1.5527 1.1699-0.35978 0.19809-0.73792 0.37247-1.1406 0.45313-0.48231 0.0966-0.99873 0.0505-1.4394-0.16797-0.33875-0.1679-0.62202-0.42933-0.88476-0.70117-0.6075-0.62849-1.1392-1.3374-1.8223-1.8828-0.70436-0.5625-1.5755-0.93853-2.4766-0.96289-0.83487-0.0226-1.6582 0.25565-2.373 0.6875-0.76754 0.46368-1.4233 1.1052-1.9375 1.8398-0.4198 0.59984-0.74711 1.2581-1.0684 1.916-0.30169 0.61785-0.59947 1.2378-0.93164 1.8398-0.28761 0.52125-0.60097 1.028-0.91602 1.5332-0.27673 0.44372-0.55543 0.88676-0.88476 1.293-0.40987 0.50554-0.89367 0.94948-1.4023 1.3555-0.36529 0.29155-0.74521 0.56528-1.1406 0.81445-0.56091 0.35345-1.1542 0.65762-1.7812 0.87305-0.74814 0.25704-1.541 0.38503-2.332 0.375v0.0762c0.77795 0.0959 1.5738 0.038 2.3301-0.16797 0.86772-0.23627 1.6721-0.66139 2.4355-1.1367 0.92653-0.57689 1.8133-1.2393 2.5254-2.0664 0.55227-0.64143 0.9891-1.3715 1.4941-2.0508 0.57756-0.77679 1.2416-1.4855 1.9414-2.1543 0.51788-0.49496 1.0617-0.97212 1.6855-1.3242 0.40062-0.22611 0.8372-0.40046 1.293-0.46289 0.55747-0.0764 1.1419 0.0214 1.627 0.30664 0.45876 0.26974 0.80723 0.68893 1.1504 1.0957 0.37659 0.44639 0.75926 0.88942 1.1719 1.3027 0.31669 0.31721 0.65978 0.62307 1.0762 0.78906 0.30671 0.12227 0.64318 0.16235 0.97265 0.14062 0.32946-0.0217 0.65256-0.10465 0.96094-0.22265 0.62055-0.23743 1.1842-0.61658 1.6621-1.0781 0.66199-0.6393 1.157-1.425 1.6836-2.1797 0.11563-0.1657 0.23303-0.33043 0.35157-0.49414z"/>
    <path id="path21778" transform="matrix(3.2403 0 0 3.2403 -280.33 -469.64)" d="m117.03 149.19c-0.23238 0.40103-0.46326 0.80292-0.69279 1.2056-0.50034 0.87767-0.99217 1.759-1.4785 2.6445-0.68001 1.2381-1.375 2.4708-1.957 3.7578-0.40764 0.90141-0.75004 1.8314-1.1875 2.7188-0.11245 0.22809-0.23193 0.45441-0.36133 0.67383l-0.4707 1.832c0.3861-0.53324 0.78419-1.058 1.1719-1.5898 0.45576-0.62526 0.89814-1.2607 1.3711-1.873 0.35313-0.45721 0.72501-0.90442 1.1543-1.291 0.28803-0.25939 0.60779-0.49389 0.97461-0.61914 0.14549-0.0497 0.29743-0.0807 0.45117-0.082 0.15373-1e-3 0.30779 0.027 0.44532 0.0957 0.22264 0.11125 0.38613 0.31675 0.51562 0.5293 0.0405 0.0664 0.0783 0.13413 0.11446 0.20279 0.17994 0.34187 0.30156 0.31779 0.30156-0.0688v-8.0414c0-0.3866-0.1583-0.42951-0.35213-0.095z" fill="#0f0"/>
</svg>
