<?xml version="1.0" encoding="UTF-8"?>
<!-- Created with Inkscape (http://www.inkscape.org/) -->
<svg id="svg5" width="21.2" height="8.5171" version="1.1" viewBox="0 0 21.2 8.5171" xmlns="http://www.w3.org/2000/svg">
<g id="lit_group" transform="matrix(3.7795 0 0 3.7795 -1.3859 -.73781)">
<rect id="rect1149" transform="matrix(.26458 0 0 .26458 .37042 .19618)" width="21.2" height="8.5171" ry=".071468" fill="#fff"/>
<path id="frame_lit" d="m0.83008 0.19531c-0.25148 0-0.45898 0.2075-0.45898 0.45898v1.3359c0 0.25148 0.2075 0.45898 0.45898 0.45898h4.6914c0.25148-1e-7 0.45898-0.2075 0.45898-0.45898v-1.3359c0-0.25148-0.2075-0.45898-0.45898-0.45898zm0 0.31836h4.6914c0.07989 0 0.14062 0.060734 0.14062 0.14062v1.3359c0 0.079891-0.060735 0.14258-0.14062 0.14258h-4.6914c-0.07989 0-0.14258-0.062688-0.14258-0.14258v-1.3359c0-0.07989 0.062688-0.14062 0.14258-0.14062z" color="#000000" fill="#0f0" style="-inkscape-stroke:none;paint-order:stroke fill markers"/>
<path id="path1095" d="m0.82917 0.35493h4.6917a0.3 0.3 45 0 1 0.3 0.3v1.336a0.3 0.3 135 0 1-0.3 0.3h-4.6917a0.3 0.3 45 0 1-0.3-0.3v-1.336a0.3 0.3 135 0 1 0.3-0.3z" color="#000000" fill="#fff" stroke-width=".3175" style="-inkscape-stroke:none;paint-order:stroke fill markers"/>
</g>
<g id="unlit_group" transform="matrix(3.7795 0 0 3.7795 -1.3851 -.73904)">
<path id="frame_unlit" d="m0.83008 0.25c-0.22288 0-0.40625 0.18142-0.40625 0.4043v1.3359c0 0.22288 0.18337 0.40625 0.40625 0.40625h4.6914c0.22288 0 0.4043-0.18337 0.4043-0.40625v-1.3359c0-0.22288-0.18142-0.4043-0.4043-0.4043zm0 0.21094h4.6914c0.10849 0 0.19336 0.084871 0.19336 0.19336v1.3359c0 0.10849-0.084871 0.19531-0.19336 0.19531h-4.6914c-0.10849 0-0.19531-0.086824-0.19531-0.19531v-1.3359c0-0.10849 0.086824-0.19336 0.19531-0.19336z" color="#000000" fill="#00f" style="-inkscape-stroke:none;paint-order:stroke fill markers"/>
<path id="path14177" d="m0.82917 0.35493h4.6917a0.3 0.3 45 0 1 0.3 0.3v1.336a0.3 0.3 135 0 1-0.3 0.3h-4.6917a0.3 0.3 45 0 1-0.3-0.3v-1.336a0.3 0.3 135 0 1 0.3-0.3z" color="#000000" fill="#fff" stroke-width=".21167" style="-inkscape-stroke:none;paint-order:stroke fill markers"/>
</g>
</svg>
