<svg
    xmlns="http://www.w3.org/2000/svg"
    viewBox="0 0 294 98"
    id="vector"
    width="294px"
    height="98px">
    <path
        id="top"
        d="M 9.876 8.259 L 284.374 8.259 C 285.242 8.259 286.076 8.604 286.69 9.218 C 287.304 9.832 287.649 10.666 287.649 11.534 L 287.649 19.866 C 287.649 20.735 287.304 21.568 286.69 22.183 C 286.076 22.797 285.242 23.142 284.374 23.142 L 9.876 23.142 C 9.008 23.142 8.174 22.797 7.561 22.183 C 6.946 21.568 6.601 20.735 6.601 19.866 L 6.601 11.534 C 6.601 10.666 6.946 9.832 7.561 9.218 C 8.174 8.604 9.008 8.259 9.876 8.259 Z"
        fill="#00ff00"
        fill-opacity="0.8623512076468896"
        stroke-width="1"/>
    <path
        id="bottom"
        d="M 52.956 60 L 241.296 60 C 242.622 60 243.894 60.527 244.832 61.464 C 245.769 62.402 246.296 63.674 246.296 65 L 246.296 93.143 C 246.296 94.469 245.769 95.741 244.832 96.679 C 243.894 97.616 242.622 98.143 241.296 98.143 L 52.956 98.143 C 51.63 98.143 50.358 97.616 49.42 96.679 C 48.483 95.741 47.956 94.469 47.956 93.143 L 47.956 65 C 47.956 63.674 48.483 62.402 49.42 61.464 C 50.358 60.527 51.63 60 52.956 60 Z"
        fill="#00ff00"
        fill-opacity="0"
        stroke-width="1"/>
    <path
        id="bottom_res"
        d="M 47.956 85.3 L 47.956 91.562 C 47.956 94.323 50.195 96.562 52.956 96.562 L 241.296 96.562 C 244.057 96.562 246.296 94.323 246.296 91.562 L 246.296 85.3"
        fill="#ffffff"
        fill-opacity="0"
        stroke="#00ff00"
        stroke-opacity="0"
        stroke-width="3.058"
        stroke-linecap="round"
        stroke-linejoin="round"
        stroke-miterlimit="3.8"/>
</svg>
