<svg
    xmlns="http://www.w3.org/2000/svg"
    viewBox="0 0 294 98"
    id="vector"
    width="294px"
    height="98px">
    <path
        id="top"
        d="M 30.962 33.584 L 263.289 33.584 C 264.381 33.584 265.43 34.018 266.202 34.79 C 266.975 35.563 267.409 36.611 267.409 37.703 L 267.409 55.732 C 267.409 56.825 266.975 57.873 266.202 58.645 C 265.43 59.417 264.381 59.851 263.289 59.851 L 30.962 59.851 C 29.87 59.851 28.821 59.417 28.049 58.645 C 27.277 57.873 26.842 56.825 26.842 55.732 L 26.842 37.703 C 26.842 36.611 27.277 35.563 28.049 34.79 C 28.821 34.018 29.87 33.584 30.962 33.584 Z"
        fill="#00ff00"
        fill-opacity="0.44026985742392255"
        stroke-width="1"/>
    <path
        id="bottom"
        d="M 52.956 60 L 241.296 60 C 242.622 60 243.894 60.527 244.832 61.464 C 245.769 62.402 246.296 63.674 246.296 65 L 246.296 93.143 C 246.296 94.469 245.769 95.741 244.832 96.679 C 243.894 97.616 242.622 98.143 241.296 98.143 L 52.956 98.143 C 51.63 98.143 50.358 97.616 49.42 96.679 C 48.483 95.741 47.956 94.469 47.956 93.143 L 47.956 65 C 47.956 63.674 48.483 62.402 49.42 61.464 C 50.358 60.527 51.63 60 52.956 60 Z"
        fill="#00ff00"
        fill-opacity="0"
        stroke-width="1"/>
    <path
        id="bottom_res"
        d="M 47.956 85.3 L 47.956 91.562 C 47.956 94.323 50.195 96.562 52.956 96.562 L 241.296 96.562 C 244.057 96.562 246.296 94.323 246.296 91.562 L 246.296 85.3"
        fill="#ffffff"
        fill-opacity="0"
        stroke="#00ff00"
        stroke-opacity="0"
        stroke-width="3.058"
        stroke-linecap="round"
        stroke-linejoin="round"
        stroke-miterlimit="3.8"/>
</svg>
