<svg
    xmlns="http://www.w3.org/2000/svg"
    viewBox="0 0 294 98"
    id="vector"
    width="294px"
    height="98px">
    <path
        id="top"
        d="M 44.125 49.394 L 250.127 49.394 C 251.359 49.394 252.541 49.883 253.412 50.754 C 254.283 51.626 254.773 52.808 254.773 54.04 L 254.773 78.122 C 254.773 79.354 254.283 80.536 253.412 81.408 C 252.541 82.279 251.359 82.768 250.127 82.768 L 44.125 82.768 C 42.893 82.768 41.711 82.279 40.839 81.408 C 39.968 80.536 39.479 79.354 39.479 78.122 L 39.479 54.04 C 39.479 52.808 39.968 51.626 40.839 50.754 C 41.711 49.883 42.893 49.394 44.125 49.394 Z"
        fill="#00ff00"
        fill-opacity="0.17677479402196095"
        stroke-width="1"/>
    <path
        id="bottom"
        d="M 52.956 60 L 241.296 60 C 242.622 60 243.894 60.527 244.832 61.464 C 245.769 62.402 246.296 63.674 246.296 65 L 246.296 93.143 C 246.296 94.469 245.769 95.741 244.832 96.679 C 243.894 97.616 242.622 98.143 241.296 98.143 L 52.956 98.143 C 51.63 98.143 50.358 97.616 49.42 96.679 C 48.483 95.741 47.956 94.469 47.956 93.143 L 47.956 65 C 47.956 63.674 48.483 62.402 49.42 61.464 C 50.358 60.527 51.63 60 52.956 60 Z"
        fill="#00ff00"
        fill-opacity="0"
        stroke-width="1"/>
    <path
        id="bottom_res"
        d="M 47.956 85.3 L 47.956 91.562 C 47.956 94.323 50.195 96.562 52.956 96.562 L 241.296 96.562 C 244.057 96.562 246.296 94.323 246.296 91.562 L 246.296 85.3"
        fill="#ffffff"
        fill-opacity="0"
        stroke="#00ff00"
        stroke-opacity="0"
        stroke-width="3.058"
        stroke-linecap="round"
        stroke-linejoin="round"
        stroke-miterlimit="3.8"/>
</svg>
