<svg
    xmlns="http://www.w3.org/2000/svg"
    viewBox="0 0 294 98"
    id="vector"
    width="294px"
    height="98px">
    <path
        id="top"
        d="M 35.284 38.775 L 258.967 38.775 C 260.106 38.775 261.198 39.227 262.003 40.032 C 262.808 40.837 263.26 41.929 263.26 43.067 L 263.26 63.083 C 263.26 64.222 262.808 65.314 262.003 66.119 C 261.198 66.924 260.106 67.376 258.967 67.376 L 35.284 67.376 C 34.146 67.376 33.053 66.924 32.248 66.119 C 31.444 65.314 30.991 64.222 30.991 63.083 L 30.991 43.067 C 30.991 41.929 31.444 40.837 32.248 40.032 C 33.053 39.227 34.146 38.775 35.284 38.775 Z"
        fill="#00ff00"
        fill-opacity="0.3537538811260984"
        stroke-width="1"/>
    <path
        id="bottom"
        d="M 52.956 60 L 241.296 60 C 242.622 60 243.894 60.527 244.832 61.464 C 245.769 62.402 246.296 63.674 246.296 65 L 246.296 93.143 C 246.296 94.469 245.769 95.741 244.832 96.679 C 243.894 97.616 242.622 98.143 241.296 98.143 L 52.956 98.143 C 51.63 98.143 50.358 97.616 49.42 96.679 C 48.483 95.741 47.956 94.469 47.956 93.143 L 47.956 65 C 47.956 63.674 48.483 62.402 49.42 61.464 C 50.358 60.527 51.63 60 52.956 60 Z"
        fill="#00ff00"
        fill-opacity="0"
        stroke-width="1"/>
    <path
        id="bottom_res"
        d="M 47.956 85.3 L 47.956 91.562 C 47.956 94.323 50.195 96.562 52.956 96.562 L 241.296 96.562 C 244.057 96.562 246.296 94.323 246.296 91.562 L 246.296 85.3"
        fill="#ffffff"
        fill-opacity="0"
        stroke="#00ff00"
        stroke-opacity="0"
        stroke-width="3.058"
        stroke-linecap="round"
        stroke-linejoin="round"
        stroke-miterlimit="3.8"/>
</svg>
