<svg
    xmlns="http://www.w3.org/2000/svg"
    viewBox="0 0 294 98"
    id="vector"
    width="294px"
    height="98px">
    <path
        id="top"
        d="M 52.909 59.944 L 241.343 59.944 C 242.668 59.944 243.94 60.471 244.877 61.407 C 245.814 62.345 246.341 63.617 246.341 64.942 L 246.341 93.064 C 246.341 94.389 245.814 95.661 244.877 96.598 C 243.94 97.535 242.668 98.062 241.343 98.062 L 52.909 98.062 C 51.584 98.062 50.312 97.535 49.375 96.598 C 48.438 95.661 47.911 94.389 47.911 93.064 L 47.911 64.942 C 47.911 63.617 48.438 62.345 49.375 61.407 C 50.312 60.471 51.584 59.944 52.909 59.944 Z"
        fill="#00ff00"
        fill-opacity="0.0009341352631897504"
        stroke-width="1"/>
    <path
        id="bottom"
        d="M 52.956 60 L 241.296 60 C 242.622 60 243.894 60.527 244.832 61.464 C 245.769 62.402 246.296 63.674 246.296 65 L 246.296 93.143 C 246.296 94.469 245.769 95.741 244.832 96.679 C 243.894 97.616 242.622 98.143 241.296 98.143 L 52.956 98.143 C 51.63 98.143 50.358 97.616 49.42 96.679 C 48.483 95.741 47.956 94.469 47.956 93.143 L 47.956 65 C 47.956 63.674 48.483 62.402 49.42 61.464 C 50.358 60.527 51.63 60 52.956 60 Z"
        fill="#00ff00"
        fill-opacity="0.9896668826915859"
        stroke-width="1"/>
    <path
        id="bottom_res"
        d="M 47.956 85.3 L 47.956 91.562 C 47.956 94.323 50.195 96.562 52.956 96.562 L 241.296 96.562 C 244.057 96.562 246.296 94.323 246.296 91.562 L 246.296 85.3"
        fill="#ffffff"
        fill-opacity="0"
        stroke="#00ff00"
        stroke-opacity="0"
        stroke-width="3.058"
        stroke-linecap="round"
        stroke-linejoin="round"
        stroke-miterlimit="3.8"/>
</svg>
