<svg
    xmlns="http://www.w3.org/2000/svg"
    viewBox="0 0 294 98"
    id="vector"
    width="294px"
    height="98px">
    <path
        id="top"
        d="M 3.831 0.998 L 290.419 0.998 C 291.223 0.998 291.995 1.318 292.563 1.887 C 293.132 2.455 293.452 3.228 293.452 4.032 L 293.452 9.584 C 293.452 10.389 293.132 11.16 292.563 11.73 C 291.995 12.298 291.223 12.617 290.419 12.617 L 3.831 12.617 C 3.027 12.617 2.255 12.298 1.687 11.73 C 1.118 11.16 0.798 10.389 0.798 9.584 L 0.798 4.032 C 0.798 3.228 1.118 2.455 1.687 1.887 C 2.255 1.318 3.027 0.998 3.831 0.998 Z"
        fill="#00ff00"
        fill-opacity="0.9833586356589218"
        stroke-width="1"/>
    <path
        id="bottom"
        d="M 52.956 60 L 241.296 60 C 242.622 60 243.894 60.527 244.832 61.464 C 245.769 62.402 246.296 63.674 246.296 65 L 246.296 93.143 C 246.296 94.469 245.769 95.741 244.832 96.679 C 243.894 97.616 242.622 98.143 241.296 98.143 L 52.956 98.143 C 51.63 98.143 50.358 97.616 49.42 96.679 C 48.483 95.741 47.956 94.469 47.956 93.143 L 47.956 65 C 47.956 63.674 48.483 62.402 49.42 61.464 C 50.358 60.527 51.63 60 52.956 60 Z"
        fill="#00ff00"
        fill-opacity="0"
        stroke-width="1"/>
    <path
        id="bottom_res"
        d="M 47.956 85.3 L 47.956 91.562 C 47.956 94.323 50.195 96.562 52.956 96.562 L 241.296 96.562 C 244.057 96.562 246.296 94.323 246.296 91.562 L 246.296 85.3"
        fill="#ffffff"
        fill-opacity="0"
        stroke="#00ff00"
        stroke-opacity="0.9833586356589218"
        stroke-width="3.058"
        stroke-linecap="round"
        stroke-linejoin="round"
        stroke-miterlimit="3.8"/>
</svg>
