<svg
    xmlns="http://www.w3.org/2000/svg"
    viewBox="0 0 294 98"
    id="vector"
    width="294px"
    height="98px">
    <path
        id="top"
        d="M 51.604 58.377 L 242.648 58.377 C 243.959 58.377 245.217 58.898 246.145 59.825 C 247.072 60.753 247.593 62.011 247.593 63.323 L 247.593 90.844 C 247.593 92.156 247.072 93.414 246.145 94.342 C 245.217 95.269 243.959 95.79 242.648 95.79 L 51.604 95.79 C 50.293 95.79 49.035 95.269 48.107 94.342 C 47.18 93.414 46.659 92.156 46.659 90.844 L 46.659 63.323 C 46.659 62.011 47.18 60.753 48.107 59.825 C 49.035 58.898 50.293 58.377 51.604 58.377 Z"
        fill="#00ff00"
        fill-opacity="0.02705522119777859"
        stroke-width="1"/>
    <path
        id="bottom"
        d="M 52.956 60 L 241.296 60 C 242.622 60 243.894 60.527 244.832 61.464 C 245.769 62.402 246.296 63.674 246.296 65 L 246.296 93.143 C 246.296 94.469 245.769 95.741 244.832 96.679 C 243.894 97.616 242.622 98.143 241.296 98.143 L 52.956 98.143 C 51.63 98.143 50.358 97.616 49.42 96.679 C 48.483 95.741 47.956 94.469 47.956 93.143 L 47.956 65 C 47.956 63.674 48.483 62.402 49.42 61.464 C 50.358 60.527 51.63 60 52.956 60 Z"
        fill="#00ff00"
        fill-opacity="0.45725173981687295"
        stroke-width="1"/>
    <path
        id="bottom_res"
        d="M 47.956 85.3 L 47.956 91.562 C 47.956 94.323 50.195 96.562 52.956 96.562 L 241.296 96.562 C 244.057 96.562 246.296 94.323 246.296 91.562 L 246.296 85.3"
        fill="#ffffff"
        fill-opacity="0"
        stroke="#00ff00"
        stroke-opacity="0"
        stroke-width="3.058"
        stroke-linecap="round"
        stroke-linejoin="round"
        stroke-miterlimit="3.8"/>
</svg>
