<svg
    xmlns="http://www.w3.org/2000/svg"
    viewBox="0 0 294 98"
    id="vector"
    width="294px"
    height="98px">
    <path
        id="top"
        d="M 3.193 0.232 L 291.057 0.232 C 291.854 0.232 292.62 0.549 293.183 1.113 C 293.748 1.677 294.065 2.443 294.065 3.24 L 294.065 8.499 C 294.065 9.297 293.748 10.062 293.183 10.626 C 292.62 11.189 291.854 11.506 291.057 11.506 L 3.193 11.506 C 2.396 11.506 1.63 11.189 1.067 10.626 C 0.502 10.062 0.185 9.297 0.185 8.499 L 0.185 3.24 C 0.185 2.443 0.502 1.677 1.067 1.113 C 1.63 0.549 2.396 0.232 3.193 0.232 Z"
        fill="#00ff00"
        fill-opacity="0.9961339698417373"
        stroke-width="1"/>
    <path
        id="bottom"
        d="M 52.956 60 L 241.296 60 C 242.622 60 243.894 60.527 244.832 61.464 C 245.769 62.402 246.296 63.674 246.296 65 L 246.296 93.143 C 246.296 94.469 245.769 95.741 244.832 96.679 C 243.894 97.616 242.622 98.143 241.296 98.143 L 52.956 98.143 C 51.63 98.143 50.358 97.616 49.42 96.679 C 48.483 95.741 47.956 94.469 47.956 93.143 L 47.956 65 C 47.956 63.674 48.483 62.402 49.42 61.464 C 50.358 60.527 51.63 60 52.956 60 Z"
        fill="#00ff00"
        fill-opacity="0"
        stroke-width="1"/>
    <path
        id="bottom_res"
        d="M 47.956 85.3 L 47.956 91.562 C 47.956 94.323 50.195 96.562 52.956 96.562 L 241.296 96.562 C 244.057 96.562 246.296 94.323 246.296 91.562 L 246.296 85.3"
        fill="#ffffff"
        fill-opacity="0"
        stroke="#00ff00"
        stroke-width="3.058"
        stroke-linecap="round"
        stroke-linejoin="round"
        stroke-miterlimit="3.8"/>
</svg>
