<svg
    xmlns="http://www.w3.org/2000/svg"
    viewBox="0 0 294 98"
    id="vector"
    width="294px"
    height="98px">
    <path
        id="top"
        d="M 47.684 53.668 L 246.567 53.668 C 247.837 53.668 249.056 54.173 249.954 55.071 C 250.852 55.969 251.356 57.187 251.356 58.457 L 251.356 84.176 C 251.356 85.446 250.852 86.665 249.954 87.563 C 249.056 88.46 247.837 88.965 246.567 88.965 L 47.684 88.965 C 46.414 88.965 45.196 88.46 44.298 87.563 C 43.4 86.665 42.895 85.446 42.895 84.176 L 42.895 58.457 C 42.895 57.187 43.4 55.969 44.298 55.071 C 45.196 54.173 46.414 53.668 47.684 53.668 Z"
        fill="#00ff00"
        fill-opacity="0.10552527667513723"
        stroke-width="1"/>
    <path
        id="bottom"
        d="M 52.956 60 L 241.296 60 C 242.622 60 243.894 60.527 244.832 61.464 C 245.769 62.402 246.296 63.674 246.296 65 L 246.296 93.143 C 246.296 94.469 245.769 95.741 244.832 96.679 C 243.894 97.616 242.622 98.143 241.296 98.143 L 52.956 98.143 C 51.63 98.143 50.358 97.616 49.42 96.679 C 48.483 95.741 47.956 94.469 47.956 93.143 L 47.956 65 C 47.956 63.674 48.483 62.402 49.42 61.464 C 50.358 60.527 51.63 60 52.956 60 Z"
        fill="#00ff00"
        fill-opacity="0"
        stroke-width="1"/>
    <path
        id="bottom_res"
        d="M 47.956 85.3 L 47.956 91.562 C 47.956 94.323 50.195 96.562 52.956 96.562 L 241.296 96.562 C 244.057 96.562 246.296 94.323 246.296 91.562 L 246.296 85.3"
        fill="#ffffff"
        fill-opacity="0"
        stroke="#00ff00"
        stroke-opacity="0"
        stroke-width="3.058"
        stroke-linecap="round"
        stroke-linejoin="round"
        stroke-miterlimit="3.8"/>
</svg>
