<svg
    xmlns="http://www.w3.org/2000/svg"
    viewBox="0 0 294 98"
    id="vector"
    width="294px"
    height="98px">
    <path
        id="top"
        d="M 3.047 0.056 L 291.203 0.056 C 291.999 0.056 292.763 0.372 293.326 0.936 C 293.889 1.498 294.205 2.262 294.205 3.058 L 294.205 8.249 C 294.205 9.046 293.889 9.809 293.326 10.373 C 292.763 10.935 291.999 11.251 291.203 11.251 L 3.047 11.251 C 2.251 11.251 1.487 10.935 0.924 10.373 C 0.361 9.809 0.045 9.046 0.045 8.249 L 0.045 3.058 C 0.045 2.262 0.361 1.498 0.924 0.936 C 1.487 0.372 2.251 0.056 3.047 0.056 Z"
        fill="#00ff00"
        fill-opacity="0.9990658647368104"
        stroke-width="1"/>
    <path
        id="bottom"
        d="M 52.956 60 L 241.296 60 C 242.622 60 243.894 60.527 244.832 61.464 C 245.769 62.402 246.296 63.674 246.296 65 L 246.296 93.143 C 246.296 94.469 245.769 95.741 244.832 96.679 C 243.894 97.616 242.622 98.143 241.296 98.143 L 52.956 98.143 C 51.63 98.143 50.358 97.616 49.42 96.679 C 48.483 95.741 47.956 94.469 47.956 93.143 L 47.956 65 C 47.956 63.674 48.483 62.402 49.42 61.464 C 50.358 60.527 51.63 60 52.956 60 Z"
        fill="#00ff00"
        fill-opacity="0"
        stroke-width="1"/>
    <path
        id="bottom_res"
        d="M 47.956 85.3 L 47.956 91.562 C 47.956 94.323 50.195 96.562 52.956 96.562 L 241.296 96.562 C 244.057 96.562 246.296 94.323 246.296 91.562 L 246.296 85.3"
        fill="#ffffff"
        fill-opacity="0"
        stroke="#00ff00"
        stroke-width="3.058"
        stroke-linecap="round"
        stroke-linejoin="round"
        stroke-miterlimit="3.8"/>
</svg>
