<svg
    xmlns="http://www.w3.org/2000/svg"
    viewBox="0 0 294 98"
    id="vector"
    width="294px"
    height="98px">
    <path
        id="top"
        d="M 7.252 5.106 L 286.999 5.106 C 287.839 5.106 288.646 5.44 289.24 6.035 C 289.835 6.629 290.169 7.436 290.169 8.277 L 290.169 15.402 C 290.169 16.243 289.835 17.049 289.24 17.644 C 288.646 18.238 287.839 18.572 286.999 18.572 L 7.252 18.572 C 6.411 18.572 5.604 18.238 5.01 17.644 C 4.415 17.049 4.081 16.243 4.081 15.402 L 4.081 8.277 C 4.081 7.436 4.415 6.629 5.01 6.035 C 5.604 5.44 6.411 5.106 7.252 5.106 Z"
        fill="#00ff00"
        fill-opacity="0.9148945183944486"
        stroke-width="1"/>
    <path
        id="bottom"
        d="M 52.956 60 L 241.296 60 C 242.622 60 243.894 60.527 244.832 61.464 C 245.769 62.402 246.296 63.674 246.296 65 L 246.296 93.143 C 246.296 94.469 245.769 95.741 244.832 96.679 C 243.894 97.616 242.622 98.143 241.296 98.143 L 52.956 98.143 C 51.63 98.143 50.358 97.616 49.42 96.679 C 48.483 95.741 47.956 94.469 47.956 93.143 L 47.956 65 C 47.956 63.674 48.483 62.402 49.42 61.464 C 50.358 60.527 51.63 60 52.956 60 Z"
        fill="#00ff00"
        fill-opacity="0"
        stroke-width="1"/>
    <path
        id="bottom_res"
        d="M 47.956 85.3 L 47.956 91.562 C 47.956 94.323 50.195 96.562 52.956 96.562 L 241.296 96.562 C 244.057 96.562 246.296 94.323 246.296 91.562 L 246.296 85.3"
        fill="#ffffff"
        fill-opacity="0"
        stroke="#00ff00"
        stroke-opacity="0.35375388112609896"
        stroke-width="3.058"
        stroke-linecap="round"
        stroke-linejoin="round"
        stroke-miterlimit="3.8"/>
</svg>
