<svg
    xmlns="http://www.w3.org/2000/svg"
    viewBox="0 0 294 98"
    id="vector"
    width="294px"
    height="98px">
    <path
        id="top"
        d="M 35.743 39.327 L 258.508 39.327 C 259.651 39.327 260.748 39.781 261.556 40.589 C 262.364 41.398 262.819 42.495 262.819 43.638 L 262.819 63.865 C 262.819 65.009 262.364 66.105 261.556 66.914 C 260.748 67.722 259.651 68.176 258.508 68.176 L 35.743 68.176 C 34.6 68.176 33.503 67.722 32.695 66.914 C 31.887 66.105 31.433 65.009 31.433 63.865 L 31.433 43.638 C 31.433 42.495 31.887 41.398 32.695 40.589 C 33.503 39.781 34.6 39.327 35.743 39.327 Z"
        fill="#00ff00"
        fill-opacity="0.34455366514560215"
        stroke-width="1"/>
    <path
        id="bottom"
        d="M 52.956 60 L 241.296 60 C 242.622 60 243.894 60.527 244.832 61.464 C 245.769 62.402 246.296 63.674 246.296 65 L 246.296 93.143 C 246.296 94.469 245.769 95.741 244.832 96.679 C 243.894 97.616 242.622 98.143 241.296 98.143 L 52.956 98.143 C 51.63 98.143 50.358 97.616 49.42 96.679 C 48.483 95.741 47.956 94.469 47.956 93.143 L 47.956 65 C 47.956 63.674 48.483 62.402 49.42 61.464 C 50.358 60.527 51.63 60 52.956 60 Z"
        fill="#00ff00"
        fill-opacity="0.06666666666666676"
        stroke-width="1"/>
    <path
        id="bottom_res"
        d="M 47.956 85.3 L 47.956 91.562 C 47.956 94.323 50.195 96.562 52.956 96.562 L 241.296 96.562 C 244.057 96.562 246.296 94.323 246.296 91.562 L 246.296 85.3"
        fill="#ffffff"
        fill-opacity="0"
        stroke="#00ff00"
        stroke-opacity="0"
        stroke-width="3.058"
        stroke-linecap="round"
        stroke-linejoin="round"
        stroke-miterlimit="3.8"/>
</svg>
