<svg
    xmlns="http://www.w3.org/2000/svg"
    viewBox="0 0 294 98"
    id="vector"
    width="294px"
    height="98px">
    <path
        id="top"
        d="M 20.213 20.673 L 274.038 20.673 C 275.016 20.673 275.955 21.062 276.647 21.754 C 277.339 22.445 277.727 23.384 277.727 24.362 L 277.727 37.448 C 277.727 38.426 277.339 39.365 276.647 40.057 C 275.955 40.748 275.016 41.137 274.038 41.137 L 20.213 41.137 C 19.235 41.137 18.296 40.748 17.604 40.057 C 16.912 39.365 16.523 38.426 16.523 37.448 L 16.523 24.362 C 16.523 23.384 16.912 22.445 17.604 21.754 C 18.296 21.062 19.235 20.673 20.213 20.673 Z"
        fill="#00ff00"
        fill-opacity="0.6554463348543972"
        stroke-width="1"/>
    <path
        id="bottom"
        d="M 52.956 60 L 241.296 60 C 242.622 60 243.894 60.527 244.832 61.464 C 245.769 62.402 246.296 63.674 246.296 65 L 246.296 93.143 C 246.296 94.469 245.769 95.741 244.832 96.679 C 243.894 97.616 242.622 98.143 241.296 98.143 L 52.956 98.143 C 51.63 98.143 50.358 97.616 49.42 96.679 C 48.483 95.741 47.956 94.469 47.956 93.143 L 47.956 65 C 47.956 63.674 48.483 62.402 49.42 61.464 C 50.358 60.527 51.63 60 52.956 60 Z"
        fill="#00ff00"
        fill-opacity="0"
        stroke-width="1"/>
    <path
        id="bottom_res"
        d="M 47.956 85.3 L 47.956 91.562 C 47.956 94.323 50.195 96.562 52.956 96.562 L 241.296 96.562 C 244.057 96.562 246.296 94.323 246.296 91.562 L 246.296 85.3"
        fill="#ffffff"
        fill-opacity="0"
        stroke="#00ff00"
        stroke-opacity="0.003866030158262701"
        stroke-width="3.058"
        stroke-linecap="round"
        stroke-linejoin="round"
        stroke-miterlimit="3.8"/>
</svg>
