<svg
    xmlns="http://www.w3.org/2000/svg"
    viewBox="0 0 294 98"
    id="vector"
    width="294px"
    height="98px">
    <path
        id="top"
        d="M 50.926 57.562 L 243.326 57.562 C 244.63 57.562 245.882 58.08 246.804 59.002 C 247.726 59.925 248.244 61.176 248.244 62.481 L 248.244 89.69 C 248.244 90.995 247.726 92.246 246.804 93.169 C 245.882 94.091 244.63 94.609 243.326 94.609 L 50.926 94.609 C 49.622 94.609 48.37 94.091 47.448 93.169 C 46.526 92.246 46.007 90.995 46.007 89.69 L 46.007 62.481 C 46.007 61.176 46.526 59.925 47.448 59.002 C 48.37 58.08 49.622 57.562 50.926 57.562 Z"
        fill="#00ff00"
        fill-opacity="0.04063226326062397"
        stroke-width="1"/>
    <path
        id="bottom"
        d="M 52.956 60 L 241.296 60 C 242.622 60 243.894 60.527 244.832 61.464 C 245.769 62.402 246.296 63.674 246.296 65 L 246.296 93.143 C 246.296 94.469 245.769 95.741 244.832 96.679 C 243.894 97.616 242.622 98.143 241.296 98.143 L 52.956 98.143 C 51.63 98.143 50.358 97.616 49.42 96.679 C 48.483 95.741 47.956 94.469 47.956 93.143 L 47.956 65 C 47.956 63.674 48.483 62.402 49.42 61.464 C 50.358 60.527 51.63 60 52.956 60 Z"
        fill="#00ff00"
        fill-opacity="0.1339467750761098"
        stroke-width="1"/>
    <path
        id="bottom_res"
        d="M 47.956 85.3 L 47.956 91.562 C 47.956 94.323 50.195 96.562 52.956 96.562 L 241.296 96.562 C 244.057 96.562 246.296 94.323 246.296 91.562 L 246.296 85.3"
        fill="#ffffff"
        fill-opacity="0"
        stroke="#00ff00"
        stroke-opacity="0"
        stroke-width="3.058"
        stroke-linecap="round"
        stroke-linejoin="round"
        stroke-miterlimit="3.8"/>
</svg>
