<svg
    xmlns="http://www.w3.org/2000/svg"
    viewBox="0 0 294 98"
    id="vector"
    width="294px"
    height="98px">
    <path
        id="top"
        d="M 46.08 51.741 L 248.172 51.741 C 249.425 51.741 250.627 52.239 251.513 53.125 C 252.399 54.011 252.897 55.213 252.897 56.466 L 252.897 81.447 C 252.897 82.7 252.399 83.902 251.513 84.788 C 250.627 85.673 249.425 86.171 248.172 86.171 L 46.08 86.171 C 44.827 86.171 43.625 85.673 42.738 84.788 C 41.853 83.902 41.355 82.7 41.355 81.447 L 41.355 56.466 C 41.355 55.213 41.853 54.011 42.738 53.125 C 43.625 52.239 44.827 51.741 46.08 51.741 Z"
        fill="#00ff00"
        fill-opacity="0.13764879235311045"
        stroke-width="1"/>
    <path
        id="bottom"
        d="M 52.956 60 L 241.296 60 C 242.622 60 243.894 60.527 244.832 61.464 C 245.769 62.402 246.296 63.674 246.296 65 L 246.296 93.143 C 246.296 94.469 245.769 95.741 244.832 96.679 C 243.894 97.616 242.622 98.143 241.296 98.143 L 52.956 98.143 C 51.63 98.143 50.358 97.616 49.42 96.679 C 48.483 95.741 47.956 94.469 47.956 93.143 L 47.956 65 C 47.956 63.674 48.483 62.402 49.42 61.464 C 50.358 60.527 51.63 60 52.956 60 Z"
        fill="#00ff00"
        fill-opacity="0"
        stroke-width="1"/>
    <path
        id="bottom_res"
        d="M 47.956 85.3 L 47.956 91.562 C 47.956 94.323 50.195 96.562 52.956 96.562 L 241.296 96.562 C 244.057 96.562 246.296 94.323 246.296 91.562 L 246.296 85.3"
        fill="#ffffff"
        fill-opacity="0"
        stroke="#00ff00"
        stroke-opacity="0"
        stroke-width="3.058"
        stroke-linecap="round"
        stroke-linejoin="round"
        stroke-miterlimit="3.8"/>
</svg>
