<svg
    xmlns="http://www.w3.org/2000/svg"
    viewBox="0 0 294 98"
    id="vector"
    width="294px"
    height="98px">
    <path
        id="top"
        d="M 3.863 1.036 L 290.387 1.036 C 291.192 1.036 291.964 1.356 292.533 1.925 C 293.102 2.494 293.422 3.267 293.422 4.071 L 293.422 9.637 C 293.422 10.443 293.102 11.214 292.533 11.784 C 291.964 12.352 291.192 12.672 290.387 12.672 L 3.863 12.672 C 3.059 12.672 2.286 12.352 1.717 11.784 C 1.148 11.214 0.828 10.443 0.828 9.637 L 0.828 4.071 C 0.828 3.267 1.148 2.494 1.717 1.925 C 2.286 1.356 3.059 1.036 3.863 1.036 Z"
        fill="#00ff00"
        fill-opacity="0.9827310932706091"
        stroke-width="1"/>
    <path
        id="bottom"
        d="M 52.956 60 L 241.296 60 C 242.622 60 243.894 60.527 244.832 61.464 C 245.769 62.402 246.296 63.674 246.296 65 L 246.296 93.143 C 246.296 94.469 245.769 95.741 244.832 96.679 C 243.894 97.616 242.622 98.143 241.296 98.143 L 52.956 98.143 C 51.63 98.143 50.358 97.616 49.42 96.679 C 48.483 95.741 47.956 94.469 47.956 93.143 L 47.956 65 C 47.956 63.674 48.483 62.402 49.42 61.464 C 50.358 60.527 51.63 60 52.956 60 Z"
        fill="#00ff00"
        fill-opacity="0"
        stroke-width="1"/>
    <path
        id="bottom_res"
        d="M 47.956 85.3 L 47.956 91.562 C 47.956 94.323 50.195 96.562 52.956 96.562 L 241.296 96.562 C 244.057 96.562 246.296 94.323 246.296 91.562 L 246.296 85.3"
        fill="#ffffff"
        fill-opacity="0"
        stroke="#00ff00"
        stroke-opacity="0.9827310932706094"
        stroke-width="3.058"
        stroke-linecap="round"
        stroke-linejoin="round"
        stroke-miterlimit="3.8"/>
</svg>
