<svg
    xmlns="http://www.w3.org/2000/svg"
    viewBox="0 0 294 98"
    id="vector"
    width="294px"
    height="98px">
    <path
        id="top"
        d="M 3.45 0.541 L 290.8 0.541 C 291.599 0.541 292.368 0.859 292.933 1.425 C 293.5 1.991 293.818 2.759 293.818 3.559 L 293.818 8.936 C 293.818 9.737 293.5 10.504 292.933 11.071 C 292.368 11.636 291.599 11.954 290.8 11.954 L 3.45 11.954 C 2.651 11.954 1.882 11.636 1.317 11.071 C 0.75 10.504 0.432 9.737 0.432 8.936 L 0.432 3.559 C 0.432 2.759 0.75 1.991 1.317 1.425 C 1.882 0.859 2.651 0.541 3.45 0.541 Z"
        fill="#00ff00"
        fill-opacity="0.9909848260705958"
        stroke-width="1"/>
    <path
        id="bottom"
        d="M 52.956 60 L 241.296 60 C 242.622 60 243.894 60.527 244.832 61.464 C 245.769 62.402 246.296 63.674 246.296 65 L 246.296 93.143 C 246.296 94.469 245.769 95.741 244.832 96.679 C 243.894 97.616 242.622 98.143 241.296 98.143 L 52.956 98.143 C 51.63 98.143 50.358 97.616 49.42 96.679 C 48.483 95.741 47.956 94.469 47.956 93.143 L 47.956 65 C 47.956 63.674 48.483 62.402 49.42 61.464 C 50.358 60.527 51.63 60 52.956 60 Z"
        fill="#00ff00"
        fill-opacity="0"
        stroke-width="1"/>
    <path
        id="bottom_res"
        d="M 47.956 85.3 L 47.956 91.562 C 47.956 94.323 50.195 96.562 52.956 96.562 L 241.296 96.562 C 244.057 96.562 246.296 94.323 246.296 91.562 L 246.296 85.3"
        fill="#ffffff"
        fill-opacity="0"
        stroke="#00ff00"
        stroke-width="3.058"
        stroke-linecap="round"
        stroke-linejoin="round"
        stroke-miterlimit="3.8"/>
</svg>
