<svg
    xmlns="http://www.w3.org/2000/svg"
    viewBox="0 0 294 98"
    id="vector"
    width="294px"
    height="98px">
    <path
        id="top"
        d="M 50.809 57.422 L 243.442 57.422 C 244.746 57.422 245.996 57.94 246.918 58.861 C 247.839 59.783 248.357 61.033 248.357 62.336 L 248.357 89.492 C 248.357 90.795 247.839 92.045 246.918 92.967 C 245.996 93.888 244.746 94.406 243.442 94.406 L 50.809 94.406 C 49.506 94.406 48.256 93.888 47.334 92.967 C 46.413 92.045 45.895 90.795 45.895 89.492 L 45.895 62.336 C 45.895 61.033 46.413 59.783 47.334 58.861 C 48.256 57.94 49.506 57.422 50.809 57.422 Z"
        fill="#00ff00"
        fill-opacity="0.042968749999999986"
        stroke-width="1"/>
    <path
        id="bottom"
        d="M 52.956 60 L 241.296 60 C 242.622 60 243.894 60.527 244.832 61.464 C 245.769 62.402 246.296 63.674 246.296 65 L 246.296 93.143 C 246.296 94.469 245.769 95.741 244.832 96.679 C 243.894 97.616 242.622 98.143 241.296 98.143 L 52.956 98.143 C 51.63 98.143 50.358 97.616 49.42 96.679 C 48.483 95.741 47.956 94.469 47.956 93.143 L 47.956 65 C 47.956 63.674 48.483 62.402 49.42 61.464 C 50.358 60.527 51.63 60 52.956 60 Z"
        fill="#00ff00"
        fill-opacity="0.6"
        stroke-width="1"/>
    <path
        id="bottom_res"
        d="M 47.956 85.3 L 47.956 91.562 C 47.956 94.323 50.195 96.562 52.956 96.562 L 241.296 96.562 C 244.057 96.562 246.296 94.323 246.296 91.562 L 246.296 85.3"
        fill="#ffffff"
        fill-opacity="0"
        stroke="#00ff00"
        stroke-opacity="0"
        stroke-width="3.058"
        stroke-linecap="round"
        stroke-linejoin="round"
        stroke-miterlimit="3.8"/>
</svg>
