<svg
    xmlns="http://www.w3.org/2000/svg"
    viewBox="0 0 294 98"
    id="vector"
    width="294px"
    height="98px">
    <path
        id="top"
        d="M 3.197 0.236 L 291.053 0.236 C 291.85 0.236 292.616 0.553 293.18 1.117 C 293.744 1.681 294.061 2.447 294.061 3.244 L 294.061 8.504 C 294.061 9.303 293.744 10.068 293.18 10.632 C 292.616 11.196 291.85 11.512 291.053 11.512 L 3.197 11.512 C 2.4 11.512 1.634 11.196 1.07 10.632 C 0.506 10.068 0.189 9.303 0.189 8.504 L 0.189 3.244 C 0.189 2.447 0.506 1.681 1.07 1.117 C 1.634 0.553 2.4 0.236 3.197 0.236 Z"
        fill="#00ff00"
        fill-opacity="0.9960637220260493"
        stroke-width="1"/>
    <path
        id="bottom"
        d="M 52.956 60 L 241.296 60 C 242.622 60 243.894 60.527 244.832 61.464 C 245.769 62.402 246.296 63.674 246.296 65 L 246.296 93.143 C 246.296 94.469 245.769 95.741 244.832 96.679 C 243.894 97.616 242.622 98.143 241.296 98.143 L 52.956 98.143 C 51.63 98.143 50.358 97.616 49.42 96.679 C 48.483 95.741 47.956 94.469 47.956 93.143 L 47.956 65 C 47.956 63.674 48.483 62.402 49.42 61.464 C 50.358 60.527 51.63 60 52.956 60 Z"
        fill="#00ff00"
        fill-opacity="0"
        stroke-width="1"/>
    <path
        id="bottom_res"
        d="M 47.956 85.3 L 47.956 91.562 C 47.956 94.323 50.195 96.562 52.956 96.562 L 241.296 96.562 C 244.057 96.562 246.296 94.323 246.296 91.562 L 246.296 85.3"
        fill="#ffffff"
        fill-opacity="0"
        stroke="#00ff00"
        stroke-width="3.058"
        stroke-linecap="round"
        stroke-linejoin="round"
        stroke-miterlimit="3.8"/>
</svg>
