<svg
    xmlns="http://www.w3.org/2000/svg"
    viewBox="0 0 294 98"
    id="vector"
    width="294px"
    height="98px">
    <path
        id="top"
        d="M 25.842 27.435 L 268.408 27.435 C 269.446 27.435 270.443 27.848 271.176 28.582 C 271.91 29.316 272.323 30.312 272.323 31.35 L 272.323 47.024 C 272.323 48.062 271.91 49.058 271.176 49.793 C 270.443 50.526 269.446 50.939 268.408 50.939 L 25.842 50.939 C 24.805 50.939 23.808 50.526 23.074 49.793 C 22.34 49.058 21.928 48.062 21.928 47.024 L 21.928 31.35 C 21.928 30.312 22.34 29.316 23.074 28.582 C 23.808 27.848 24.805 27.435 25.842 27.435 Z"
        fill="#00ff00"
        fill-opacity="0.5427482601831284"
        stroke-width="1"/>
    <path
        id="bottom"
        d="M 52.956 60 L 241.296 60 C 242.622 60 243.894 60.527 244.832 61.464 C 245.769 62.402 246.296 63.674 246.296 65 L 246.296 93.143 C 246.296 94.469 245.769 95.741 244.832 96.679 C 243.894 97.616 242.622 98.143 241.296 98.143 L 52.956 98.143 C 51.63 98.143 50.358 97.616 49.42 96.679 C 48.483 95.741 47.956 94.469 47.956 93.143 L 47.956 65 C 47.956 63.674 48.483 62.402 49.42 61.464 C 50.358 60.527 51.63 60 52.956 60 Z"
        fill="#00ff00"
        fill-opacity="0"
        stroke-width="1"/>
    <path
        id="bottom_res"
        d="M 47.956 85.3 L 47.956 91.562 C 47.956 94.323 50.195 96.562 52.956 96.562 L 241.296 96.562 C 244.057 96.562 246.296 94.323 246.296 91.562 L 246.296 85.3"
        fill="#ffffff"
        fill-opacity="0"
        stroke="#00ff00"
        stroke-opacity="0"
        stroke-width="3.058"
        stroke-linecap="round"
        stroke-linejoin="round"
        stroke-miterlimit="3.8"/>
</svg>
