<svg
    xmlns="http://www.w3.org/2000/svg"
    viewBox="0 0 294 98"
    id="vector"
    width="294px"
    height="98px">
    <path
        id="top"
        d="M 48.998 55.247 L 245.254 55.247 C 246.537 55.247 247.769 55.757 248.677 56.664 C 249.585 57.572 250.095 58.804 250.095 60.088 L 250.095 86.411 C 250.095 87.695 249.585 88.927 248.677 89.835 C 247.769 90.742 246.537 91.253 245.254 91.253 L 48.998 91.253 C 47.714 91.253 46.483 90.742 45.574 89.835 C 44.667 88.927 44.157 87.695 44.157 86.411 L 44.157 60.088 C 44.157 58.804 44.667 57.572 45.574 56.664 C 46.483 55.757 47.714 55.247 48.998 55.247 Z"
        fill="#00ff00"
        fill-opacity="0.07922421657064849"
        stroke-width="1"/>
    <path
        id="bottom"
        d="M 52.956 60 L 241.296 60 C 242.622 60 243.894 60.527 244.832 61.464 C 245.769 62.402 246.296 63.674 246.296 65 L 246.296 93.143 C 246.296 94.469 245.769 95.741 244.832 96.679 C 243.894 97.616 242.622 98.143 241.296 98.143 L 52.956 98.143 C 51.63 98.143 50.358 97.616 49.42 96.679 C 48.483 95.741 47.956 94.469 47.956 93.143 L 47.956 65 C 47.956 63.674 48.483 62.402 49.42 61.464 C 50.358 60.527 51.63 60 52.956 60 Z"
        fill="#00ff00"
        fill-opacity="0"
        stroke-width="1"/>
    <path
        id="bottom_res"
        d="M 47.956 85.3 L 47.956 91.562 C 47.956 94.323 50.195 96.562 52.956 96.562 L 241.296 96.562 C 244.057 96.562 246.296 94.323 246.296 91.562 L 246.296 85.3"
        fill="#ffffff"
        fill-opacity="0"
        stroke="#00ff00"
        stroke-opacity="0"
        stroke-width="3.058"
        stroke-linecap="round"
        stroke-linejoin="round"
        stroke-miterlimit="3.8"/>
</svg>
