<svg
    xmlns="http://www.w3.org/2000/svg"
    viewBox="0 0 294 98"
    id="vector"
    width="294px"
    height="98px">
    <path
        id="top"
        d="M 45.534 51.086 L 248.717 51.086 C 249.964 51.086 251.161 51.582 252.043 52.463 C 252.925 53.345 253.42 54.542 253.42 55.789 L 253.42 80.519 C 253.42 81.766 252.925 82.963 252.043 83.845 C 251.161 84.726 249.964 85.222 248.717 85.222 L 45.534 85.222 C 44.287 85.222 43.091 84.726 42.209 83.845 C 41.327 82.963 40.831 81.766 40.831 80.519 L 40.831 55.789 C 40.831 54.542 41.327 53.345 42.209 52.463 C 43.091 51.582 44.287 51.086 45.534 51.086 Z"
        fill="#00ff00"
        fill-opacity="0.1485639716327035"
        stroke-width="1"/>
    <path
        id="bottom"
        d="M 52.956 60 L 241.296 60 C 242.622 60 243.894 60.527 244.832 61.464 C 245.769 62.402 246.296 63.674 246.296 65 L 246.296 93.143 C 246.296 94.469 245.769 95.741 244.832 96.679 C 243.894 97.616 242.622 98.143 241.296 98.143 L 52.956 98.143 C 51.63 98.143 50.358 97.616 49.42 96.679 C 48.483 95.741 47.956 94.469 47.956 93.143 L 47.956 65 C 47.956 63.674 48.483 62.402 49.42 61.464 C 50.358 60.527 51.63 60 52.956 60 Z"
        fill="#00ff00"
        fill-opacity="0.33333333333333337"
        stroke-width="1"/>
    <path
        id="bottom_res"
        d="M 47.956 85.3 L 47.956 91.562 C 47.956 94.323 50.195 96.562 52.956 96.562 L 241.296 96.562 C 244.057 96.562 246.296 94.323 246.296 91.562 L 246.296 85.3"
        fill="#ffffff"
        fill-opacity="0"
        stroke="#00ff00"
        stroke-opacity="0"
        stroke-width="3.058"
        stroke-linecap="round"
        stroke-linejoin="round"
        stroke-miterlimit="3.8"/>
</svg>
