<svg
    xmlns="http://www.w3.org/2000/svg"
    viewBox="0 0 294 98"
    id="vector"
    width="294px"
    height="98px">
    <path
        id="top"
        d="M 17.119 16.957 L 277.132 16.957 C 278.077 16.957 278.985 17.333 279.653 18.002 C 280.321 18.67 280.697 19.578 280.697 20.523 L 280.697 32.185 C 280.697 33.131 280.321 34.038 279.653 34.707 C 278.985 35.375 278.077 35.751 277.132 35.751 L 17.119 35.751 C 16.174 35.751 15.266 35.375 14.598 34.707 C 13.929 34.038 13.553 33.131 13.553 32.185 L 13.553 20.523 C 13.553 19.578 13.929 18.67 14.598 18.002 C 15.266 17.333 16.174 16.957 17.119 16.957 Z"
        fill="#00ff00"
        fill-opacity="0.7173777475668665"
        stroke-width="1"/>
    <path
        id="bottom"
        d="M 52.956 60 L 241.296 60 C 242.622 60 243.894 60.527 244.832 61.464 C 245.769 62.402 246.296 63.674 246.296 65 L 246.296 93.143 C 246.296 94.469 245.769 95.741 244.832 96.679 C 243.894 97.616 242.622 98.143 241.296 98.143 L 52.956 98.143 C 51.63 98.143 50.358 97.616 49.42 96.679 C 48.483 95.741 47.956 94.469 47.956 93.143 L 47.956 65 C 47.956 63.674 48.483 62.402 49.42 61.464 C 50.358 60.527 51.63 60 52.956 60 Z"
        fill="#00ff00"
        fill-opacity="0"
        stroke-width="1"/>
    <path
        id="bottom_res"
        d="M 47.956 85.3 L 47.956 91.562 C 47.956 94.323 50.195 96.562 52.956 96.562 L 241.296 96.562 C 244.057 96.562 246.296 94.323 246.296 91.562 L 246.296 85.3"
        fill="#ffffff"
        fill-opacity="0"
        stroke="#00ff00"
        stroke-opacity="0"
        stroke-width="3.058"
        stroke-linecap="round"
        stroke-linejoin="round"
        stroke-miterlimit="3.8"/>
</svg>
