<svg
    xmlns="http://www.w3.org/2000/svg"
    viewBox="0 0 294 98"
    id="vector"
    width="294px"
    height="98px">
    <path
        id="top"
        d="M 8.272 6.332 L 285.979 6.332 C 286.83 6.332 287.647 6.67 288.249 7.272 C 288.851 7.874 289.19 8.692 289.19 9.543 L 289.19 17.137 C 289.19 17.989 288.851 18.805 288.249 19.408 C 287.647 20.01 286.83 20.348 285.979 20.348 L 8.272 20.348 C 7.421 20.348 6.603 20.01 6.001 19.408 C 5.399 18.805 5.061 17.989 5.061 17.137 L 5.061 9.543 C 5.061 8.692 5.399 7.874 6.001 7.272 C 6.603 6.67 7.421 6.332 8.272 6.332 Z"
        fill="#00ff00"
        fill-opacity="0.8944747233248628"
        stroke-width="1"/>
    <path
        id="bottom"
        d="M 52.956 60 L 241.296 60 C 242.622 60 243.894 60.527 244.832 61.464 C 245.769 62.402 246.296 63.674 246.296 65 L 246.296 93.143 C 246.296 94.469 245.769 95.741 244.832 96.679 C 243.894 97.616 242.622 98.143 241.296 98.143 L 52.956 98.143 C 51.63 98.143 50.358 97.616 49.42 96.679 C 48.483 95.741 47.956 94.469 47.956 93.143 L 47.956 65 C 47.956 63.674 48.483 62.402 49.42 61.464 C 50.358 60.527 51.63 60 52.956 60 Z"
        fill="#00ff00"
        fill-opacity="0"
        stroke-width="1"/>
    <path
        id="bottom_res"
        d="M 47.956 85.3 L 47.956 91.562 C 47.956 94.323 50.195 96.562 52.956 96.562 L 241.296 96.562 C 244.057 96.562 246.296 94.323 246.296 91.562 L 246.296 85.3"
        fill="#ffffff"
        fill-opacity="0"
        stroke="#00ff00"
        stroke-opacity="0"
        stroke-width="3.058"
        stroke-linecap="round"
        stroke-linejoin="round"
        stroke-miterlimit="3.8"/>
</svg>
