<svg
    xmlns="http://www.w3.org/2000/svg"
    viewBox="0 0 294 98"
    id="vector"
    width="294px"
    height="98px">
    <path
        id="top"
        d="M 41.137 45.805 L 253.114 45.805 C 254.315 45.805 255.467 46.282 256.316 47.13 C 257.164 47.979 257.641 49.131 257.641 50.332 L 257.641 73.039 C 257.641 74.24 257.164 75.392 256.316 76.241 C 255.467 77.089 254.315 77.566 253.114 77.566 L 41.137 77.566 C 39.937 77.566 38.785 77.089 37.936 76.241 C 37.087 75.392 36.61 74.24 36.61 73.039 L 36.61 50.332 C 36.61 49.131 37.087 47.979 37.936 47.13 C 38.785 46.282 39.937 45.805 41.137 45.805 Z"
        fill="#00ff00"
        fill-opacity="0.23658736046778142"
        stroke-width="1"/>
    <path
        id="bottom"
        d="M 52.956 60 L 241.296 60 C 242.622 60 243.894 60.527 244.832 61.464 C 245.769 62.402 246.296 63.674 246.296 65 L 246.296 93.143 C 246.296 94.469 245.769 95.741 244.832 96.679 C 243.894 97.616 242.622 98.143 241.296 98.143 L 52.956 98.143 C 51.63 98.143 50.358 97.616 49.42 96.679 C 48.483 95.741 47.956 94.469 47.956 93.143 L 47.956 65 C 47.956 63.674 48.483 62.402 49.42 61.464 C 50.358 60.527 51.63 60 52.956 60 Z"
        fill="#00ff00"
        fill-opacity="0.19999999999999996"
        stroke-width="1"/>
    <path
        id="bottom_res"
        d="M 47.956 85.3 L 47.956 91.562 C 47.956 94.323 50.195 96.562 52.956 96.562 L 241.296 96.562 C 244.057 96.562 246.296 94.323 246.296 91.562 L 246.296 85.3"
        fill="#ffffff"
        fill-opacity="0"
        stroke="#00ff00"
        stroke-opacity="0"
        stroke-width="3.058"
        stroke-linecap="round"
        stroke-linejoin="round"
        stroke-miterlimit="3.8"/>
</svg>
