<svg
    xmlns="http://www.w3.org/2000/svg"
    viewBox="0 0 294 98"
    id="vector"
    width="294px"
    height="98px">
    <path
        id="top"
        d="M 52.759 59.764 L 241.493 59.764 C 242.817 59.764 244.087 60.29 245.023 61.226 C 245.959 62.162 246.485 63.432 246.485 64.756 L 246.485 92.809 C 246.485 94.132 245.959 95.402 245.023 96.339 C 244.087 97.274 242.817 97.801 241.493 97.801 L 52.759 97.801 C 51.435 97.801 50.165 97.274 49.229 96.339 C 48.293 95.402 47.767 94.132 47.767 92.809 L 47.767 64.756 C 47.767 63.432 48.293 62.162 49.229 61.226 C 50.165 60.29 51.435 59.764 52.759 59.764 Z"
        fill="#00ff00"
        fill-opacity="0.00393627797395075"
        stroke-width="1"/>
    <path
        id="bottom"
        d="M 52.956 60 L 241.296 60 C 242.622 60 243.894 60.527 244.832 61.464 C 245.769 62.402 246.296 63.674 246.296 65 L 246.296 93.143 C 246.296 94.469 245.769 95.741 244.832 96.679 C 243.894 97.616 242.622 98.143 241.296 98.143 L 52.956 98.143 C 51.63 98.143 50.358 97.616 49.42 96.679 C 48.483 95.741 47.956 94.469 47.956 93.143 L 47.956 65 C 47.956 63.674 48.483 62.402 49.42 61.464 C 50.358 60.527 51.63 60 52.956 60 Z"
        fill="#00ff00"
        fill-opacity="0.8666666666666667"
        stroke-width="1"/>
    <path
        id="bottom_res"
        d="M 47.956 85.3 L 47.956 91.562 C 47.956 94.323 50.195 96.562 52.956 96.562 L 241.296 96.562 C 244.057 96.562 246.296 94.323 246.296 91.562 L 246.296 85.3"
        fill="#ffffff"
        fill-opacity="0"
        stroke="#00ff00"
        stroke-opacity="0"
        stroke-width="3.058"
        stroke-linecap="round"
        stroke-linejoin="round"
        stroke-miterlimit="3.8"/>
</svg>
