<svg
    xmlns="http://www.w3.org/2000/svg"
    viewBox="0 0 294 98"
    id="vector"
    width="294px"
    height="98px">
    <path
        id="top"
        d="M 5.147 2.578 L 289.104 2.578 C 289.921 2.578 290.707 2.903 291.285 3.482 C 291.864 4.06 292.189 4.846 292.189 5.664 L 292.189 11.821 C 292.189 12.64 291.864 13.425 291.285 14.004 C 290.707 14.582 289.921 14.907 289.104 14.907 L 5.147 14.907 C 4.329 14.907 3.543 14.582 2.965 14.004 C 2.386 13.425 2.061 12.64 2.061 11.821 L 2.061 5.664 C 2.061 4.846 2.386 4.06 2.965 3.482 C 3.543 2.903 4.329 2.578 5.147 2.578 Z"
        fill="#00ff00"
        fill-opacity="0.95703125"
        stroke-width="1"/>
    <path
        id="bottom"
        d="M 52.956 60 L 241.296 60 C 242.622 60 243.894 60.527 244.832 61.464 C 245.769 62.402 246.296 63.674 246.296 65 L 246.296 93.143 C 246.296 94.469 245.769 95.741 244.832 96.679 C 243.894 97.616 242.622 98.143 241.296 98.143 L 52.956 98.143 C 51.63 98.143 50.358 97.616 49.42 96.679 C 48.483 95.741 47.956 94.469 47.956 93.143 L 47.956 65 C 47.956 63.674 48.483 62.402 49.42 61.464 C 50.358 60.527 51.63 60 52.956 60 Z"
        fill="#00ff00"
        fill-opacity="0"
        stroke-width="1"/>
    <path
        id="bottom_res"
        d="M 47.956 85.3 L 47.956 91.562 C 47.956 94.323 50.195 96.562 52.956 96.562 L 241.296 96.562 C 244.057 96.562 246.296 94.323 246.296 91.562 L 246.296 85.3"
        fill="#ffffff"
        fill-opacity="0"
        stroke="#00ff00"
        stroke-opacity="0.7634126395322186"
        stroke-width="3.058"
        stroke-linecap="round"
        stroke-linejoin="round"
        stroke-miterlimit="3.8"/>
</svg>
