<svg
    xmlns="http://www.w3.org/2000/svg"
    viewBox="0 0 294 98"
    id="vector"
    width="294px"
    height="98px">
    <path
        id="top"
        d="M 5.889 3.47 L 288.361 3.47 C 289.187 3.47 289.98 3.798 290.564 4.383 C 291.149 4.966 291.477 5.76 291.477 6.586 L 291.477 13.084 C 291.477 13.911 291.149 14.703 290.564 15.288 C 289.98 15.872 289.187 16.2 288.361 16.2 L 5.889 16.2 C 5.063 16.2 4.27 15.872 3.686 15.288 C 3.102 14.703 2.773 13.911 2.773 13.084 L 2.773 6.586 C 2.773 5.76 3.102 4.966 3.686 4.383 C 4.27 3.798 5.063 3.47 5.889 3.47 Z"
        fill="#00ff00"
        fill-opacity="0.9421679910877966"
        stroke-width="1"/>
    <path
        id="bottom"
        d="M 52.956 60 L 241.296 60 C 242.622 60 243.894 60.527 244.832 61.464 C 245.769 62.402 246.296 63.674 246.296 65 L 246.296 93.143 C 246.296 94.469 245.769 95.741 244.832 96.679 C 243.894 97.616 242.622 98.143 241.296 98.143 L 52.956 98.143 C 51.63 98.143 50.358 97.616 49.42 96.679 C 48.483 95.741 47.956 94.469 47.956 93.143 L 47.956 65 C 47.956 63.674 48.483 62.402 49.42 61.464 C 50.358 60.527 51.63 60 52.956 60 Z"
        fill="#00ff00"
        fill-opacity="0"
        stroke-width="1"/>
    <path
        id="bottom_res"
        d="M 47.956 85.3 L 47.956 91.562 C 47.956 94.323 50.195 96.562 52.956 96.562 L 241.296 96.562 C 244.057 96.562 246.296 94.323 246.296 91.562 L 246.296 85.3"
        fill="#ffffff"
        fill-opacity="0"
        stroke="#00ff00"
        stroke-opacity="0.4572517398168709"
        stroke-width="3.058"
        stroke-linecap="round"
        stroke-linejoin="round"
        stroke-miterlimit="3.8"/>
</svg>
