<svg
    xmlns="http://www.w3.org/2000/svg"
    viewBox="0 0 294 98"
    id="vector"
    width="294px"
    height="98px">
    <path
        id="top"
        d="M 10.422 8.914 L 283.829 8.914 C 284.703 8.914 285.542 9.261 286.16 9.88 C 286.778 10.498 287.126 11.337 287.126 12.211 L 287.126 20.794 C 287.126 21.669 286.778 22.507 286.16 23.126 C 285.542 23.744 284.703 24.091 283.829 24.091 L 10.422 24.091 C 9.548 24.091 8.708 23.744 8.09 23.126 C 7.472 22.507 7.125 21.669 7.125 20.794 L 7.125 12.211 C 7.125 11.337 7.472 10.498 8.09 9.88 C 8.708 9.261 9.548 8.914 10.422 8.914 Z"
        fill="#00ff00"
        fill-opacity="0.8514360283672963"
        stroke-width="1"/>
    <path
        id="bottom"
        d="M 52.956 60 L 241.296 60 C 242.622 60 243.894 60.527 244.832 61.464 C 245.769 62.402 246.296 63.674 246.296 65 L 246.296 93.143 C 246.296 94.469 245.769 95.741 244.832 96.679 C 243.894 97.616 242.622 98.143 241.296 98.143 L 52.956 98.143 C 51.63 98.143 50.358 97.616 49.42 96.679 C 48.483 95.741 47.956 94.469 47.956 93.143 L 47.956 65 C 47.956 63.674 48.483 62.402 49.42 61.464 C 50.358 60.527 51.63 60 52.956 60 Z"
        fill="#00ff00"
        fill-opacity="0"
        stroke-width="1"/>
    <path
        id="bottom_res"
        d="M 47.956 85.3 L 47.956 91.562 C 47.956 94.323 50.195 96.562 52.956 96.562 L 241.296 96.562 C 244.057 96.562 246.296 94.323 246.296 91.562 L 246.296 85.3"
        fill="#ffffff"
        fill-opacity="0"
        stroke="#00ff00"
        stroke-opacity="0.13764879235311"
        stroke-width="3.058"
        stroke-linecap="round"
        stroke-linejoin="round"
        stroke-miterlimit="3.8"/>
</svg>
