<svg
    xmlns="http://www.w3.org/2000/svg"
    viewBox="0 0 294 98"
    id="vector"
    width="294px"
    height="98px">
    <path
        id="top"
        d="M 52.125 59.002 L 242.127 59.002 C 243.444 59.002 244.708 59.525 245.64 60.456 C 246.571 61.388 247.094 62.651 247.094 63.968 L 247.094 91.729 C 247.094 93.046 246.571 94.31 245.64 95.241 C 244.708 96.172 243.444 96.696 242.127 96.696 L 52.125 96.696 C 50.808 96.696 49.544 96.172 48.612 95.241 C 47.681 94.31 47.158 93.046 47.158 91.729 L 47.158 63.968 C 47.158 62.651 47.681 61.388 48.612 60.456 C 49.544 59.525 50.808 59.002 52.125 59.002 Z"
        fill="#00ff00"
        fill-opacity="0.016641364341078102"
        stroke-width="1"/>
    <path
        id="bottom"
        d="M 52.956 60 L 241.296 60 C 242.622 60 243.894 60.527 244.832 61.464 C 245.769 62.402 246.296 63.674 246.296 65 L 246.296 93.143 C 246.296 94.469 245.769 95.741 244.832 96.679 C 243.894 97.616 242.622 98.143 241.296 98.143 L 52.956 98.143 C 51.63 98.143 50.358 97.616 49.42 96.679 C 48.483 95.741 47.956 94.469 47.956 93.143 L 47.956 65 C 47.956 63.674 48.483 62.402 49.42 61.464 C 50.358 60.527 51.63 60 52.956 60 Z"
        fill="#00ff00"
        fill-opacity="0.7299673929274456"
        stroke-width="1"/>
    <path
        id="bottom_res"
        d="M 47.956 85.3 L 47.956 91.562 C 47.956 94.323 50.195 96.562 52.956 96.562 L 241.296 96.562 C 244.057 96.562 246.296 94.323 246.296 91.562 L 246.296 85.3"
        fill="#ffffff"
        fill-opacity="0"
        stroke="#00ff00"
        stroke-opacity="0"
        stroke-width="3.058"
        stroke-linecap="round"
        stroke-linejoin="round"
        stroke-miterlimit="3.8"/>
</svg>
