<svg
    xmlns="http://www.w3.org/2000/svg"
    viewBox="0 0 294 98"
    id="vector"
    width="294px"
    height="98px">
    <path
        id="top"
        d="M 20.672 21.225 L 273.579 21.225 C 274.561 21.225 275.505 21.616 276.2 22.311 C 276.895 23.006 277.286 23.95 277.286 24.933 L 277.286 38.23 C 277.286 39.213 276.895 40.156 276.2 40.852 C 275.505 41.546 274.561 41.937 273.579 41.937 L 20.672 41.937 C 19.689 41.937 18.746 41.546 18.051 40.852 C 17.355 40.156 16.965 39.213 16.965 38.23 L 16.965 24.933 C 16.965 23.95 17.355 23.006 18.051 22.311 C 18.746 21.616 19.689 21.225 20.672 21.225 Z"
        fill="#00ff00"
        fill-opacity="0.6462461188739017"
        stroke-width="1"/>
    <path
        id="bottom"
        d="M 52.956 60 L 241.296 60 C 242.622 60 243.894 60.527 244.832 61.464 C 245.769 62.402 246.296 63.674 246.296 65 L 246.296 93.143 C 246.296 94.469 245.769 95.741 244.832 96.679 C 243.894 97.616 242.622 98.143 241.296 98.143 L 52.956 98.143 C 51.63 98.143 50.358 97.616 49.42 96.679 C 48.483 95.741 47.956 94.469 47.956 93.143 L 47.956 65 C 47.956 63.674 48.483 62.402 49.42 61.464 C 50.358 60.527 51.63 60 52.956 60 Z"
        fill="#00ff00"
        fill-opacity="0"
        stroke-width="1"/>
    <path
        id="bottom_res"
        d="M 47.956 85.3 L 47.956 91.562 C 47.956 94.323 50.195 96.562 52.956 96.562 L 241.296 96.562 C 244.057 96.562 246.296 94.323 246.296 91.562 L 246.296 85.3"
        fill="#ffffff"
        fill-opacity="0"
        stroke="#00ff00"
        stroke-opacity="0"
        stroke-width="3.058"
        stroke-linecap="round"
        stroke-linejoin="round"
        stroke-miterlimit="3.8"/>
</svg>
