<svg
    xmlns="http://www.w3.org/2000/svg"
    viewBox="0 0 294 98"
    id="vector"
    width="294px"
    height="98px">
    <path
        id="top"
        d="M 52.093 58.964 L 242.159 58.964 C 243.475 58.964 244.739 59.487 245.67 60.418 C 246.601 61.349 247.124 62.612 247.124 63.929 L 247.124 91.676 C 247.124 92.992 246.601 94.256 245.67 95.187 C 244.739 96.118 243.475 96.641 242.159 96.641 L 52.093 96.641 C 50.776 96.641 49.513 96.118 48.582 95.187 C 47.651 94.256 47.128 92.992 47.128 91.676 L 47.128 63.929 C 47.128 62.612 47.651 61.349 48.582 60.418 C 49.513 59.487 50.776 58.964 52.093 58.964 Z"
        fill="#00ff00"
        fill-opacity="0.017268906729390923"
        stroke-width="1"/>
    <path
        id="bottom"
        d="M 52.956 60 L 241.296 60 C 242.622 60 243.894 60.527 244.832 61.464 C 245.769 62.402 246.296 63.674 246.296 65 L 246.296 93.143 C 246.296 94.469 245.769 95.741 244.832 96.679 C 243.894 97.616 242.622 98.143 241.296 98.143 L 52.956 98.143 C 51.63 98.143 50.358 97.616 49.42 96.679 C 48.483 95.741 47.956 94.469 47.956 93.143 L 47.956 65 C 47.956 63.674 48.483 62.402 49.42 61.464 C 50.358 60.527 51.63 60 52.956 60 Z"
        fill="#00ff00"
        fill-opacity="0.7333333333333334"
        stroke-width="1"/>
    <path
        id="bottom_res"
        d="M 47.956 85.3 L 47.956 91.562 C 47.956 94.323 50.195 96.562 52.956 96.562 L 241.296 96.562 C 244.057 96.562 246.296 94.323 246.296 91.562 L 246.296 85.3"
        fill="#ffffff"
        fill-opacity="0"
        stroke="#00ff00"
        stroke-opacity="0"
        stroke-width="3.058"
        stroke-linecap="round"
        stroke-linejoin="round"
        stroke-miterlimit="3.8"/>
</svg>
