<svg
    xmlns="http://www.w3.org/2000/svg"
    viewBox="0 0 294 98"
    id="vector"
    width="294px"
    height="98px">
    <path
        id="top"
        d="M 14.212 13.466 L 280.038 13.466 C 280.953 13.466 281.831 13.83 282.477 14.477 C 283.124 15.123 283.487 16.001 283.487 16.915 L 283.487 27.241 C 283.487 28.156 283.124 29.033 282.477 29.681 C 281.831 30.327 280.953 30.69 280.038 30.69 L 14.212 30.69 C 13.298 30.69 12.42 30.327 11.773 29.681 C 11.127 29.033 10.763 28.156 10.763 27.241 L 10.763 16.915 C 10.763 16.001 11.127 15.123 11.773 14.477 C 12.42 13.83 13.298 13.466 14.212 13.466 Z"
        fill="#00ff00"
        fill-opacity="0.7755613111161977"
        stroke-width="1"/>
    <path
        id="bottom"
        d="M 52.956 60 L 241.296 60 C 242.622 60 243.894 60.527 244.832 61.464 C 245.769 62.402 246.296 63.674 246.296 65 L 246.296 93.143 C 246.296 94.469 245.769 95.741 244.832 96.679 C 243.894 97.616 242.622 98.143 241.296 98.143 L 52.956 98.143 C 51.63 98.143 50.358 97.616 49.42 96.679 C 48.483 95.741 47.956 94.469 47.956 93.143 L 47.956 65 C 47.956 63.674 48.483 62.402 49.42 61.464 C 50.358 60.527 51.63 60 52.956 60 Z"
        fill="#00ff00"
        fill-opacity="0"
        stroke-width="1"/>
    <path
        id="bottom_res"
        d="M 47.956 85.3 L 47.956 91.562 C 47.956 94.323 50.195 96.562 52.956 96.562 L 241.296 96.562 C 244.057 96.562 246.296 94.323 246.296 91.562 L 246.296 85.3"
        fill="#ffffff"
        fill-opacity="0"
        stroke="#00ff00"
        stroke-opacity="0"
        stroke-width="3.058"
        stroke-linecap="round"
        stroke-linejoin="round"
        stroke-miterlimit="3.8"/>
</svg>
