<svg
    xmlns="http://www.w3.org/2000/svg"
    viewBox="0 0 294 98"
    id="vector"
    width="294px"
    height="98px">
    <path
        id="top"
        d="M 50.067 56.53 L 244.185 56.53 C 245.48 56.53 246.723 57.045 247.639 57.96 C 248.554 58.877 249.069 60.119 249.069 61.414 L 249.069 88.229 C 249.069 89.524 248.554 90.767 247.639 91.683 C 246.723 92.598 245.48 93.113 244.185 93.113 L 50.067 93.113 C 48.772 93.113 47.529 92.598 46.613 91.683 C 45.697 90.767 45.183 89.524 45.183 88.229 L 45.183 61.414 C 45.183 60.119 45.697 58.877 46.613 57.96 C 47.529 57.045 48.772 56.53 50.067 56.53 Z"
        fill="#00ff00"
        fill-opacity="0.05783200891220319"
        stroke-width="1"/>
    <path
        id="bottom"
        d="M 52.956 60 L 241.296 60 C 242.622 60 243.894 60.527 244.832 61.464 C 245.769 62.402 246.296 63.674 246.296 65 L 246.296 93.143 C 246.296 94.469 245.769 95.741 244.832 96.679 C 243.894 97.616 242.622 98.143 241.296 98.143 L 52.956 98.143 C 51.63 98.143 50.358 97.616 49.42 96.679 C 48.483 95.741 47.956 94.469 47.956 93.143 L 47.956 65 C 47.956 63.674 48.483 62.402 49.42 61.464 C 50.358 60.527 51.63 60 52.956 60 Z"
        fill="#00ff00"
        fill-opacity="0.010640754857098438"
        stroke-width="1"/>
    <path
        id="bottom_res"
        d="M 47.956 85.3 L 47.956 91.562 C 47.956 94.323 50.195 96.562 52.956 96.562 L 241.296 96.562 C 244.057 96.562 246.296 94.323 246.296 91.562 L 246.296 85.3"
        fill="#ffffff"
        fill-opacity="0"
        stroke="#00ff00"
        stroke-opacity="0"
        stroke-width="3.058"
        stroke-linecap="round"
        stroke-linejoin="round"
        stroke-miterlimit="3.8"/>
</svg>
