<svg
    xmlns="http://www.w3.org/2000/svg"
    viewBox="0 0 294 98"
    id="vector"
    width="294px"
    height="98px">
    <path
        id="top"
        d="M 52.763 59.768 L 241.489 59.768 C 242.813 59.768 244.083 60.294 245.02 61.23 C 245.955 62.166 246.481 63.436 246.481 64.76 L 246.481 92.814 C 246.481 94.138 245.955 95.408 245.02 96.345 C 244.083 97.281 242.813 97.807 241.489 97.807 L 52.763 97.807 C 51.439 97.807 50.169 97.281 49.232 96.345 C 48.297 95.408 47.771 94.138 47.771 92.814 L 47.771 64.76 C 47.771 63.436 48.297 62.166 49.232 61.23 C 50.169 60.294 51.439 59.768 52.763 59.768 Z"
        fill="#00ff00"
        fill-opacity="0.003866030158262701"
        stroke-width="1"/>
    <path
        id="bottom"
        d="M 52.956 60 L 241.296 60 C 242.622 60 243.894 60.527 244.832 61.464 C 245.769 62.402 246.296 63.674 246.296 65 L 246.296 93.143 C 246.296 94.469 245.769 95.741 244.832 96.679 C 243.894 97.616 242.622 98.143 241.296 98.143 L 52.956 98.143 C 51.63 98.143 50.358 97.616 49.42 96.679 C 48.483 95.741 47.956 94.469 47.956 93.143 L 47.956 65 C 47.956 63.674 48.483 62.402 49.42 61.464 C 50.358 60.527 51.63 60 52.956 60 Z"
        fill="#00ff00"
        fill-opacity="0.9529516641211331"
        stroke-width="1"/>
    <path
        id="bottom_res"
        d="M 47.956 85.3 L 47.956 91.562 C 47.956 94.323 50.195 96.562 52.956 96.562 L 241.296 96.562 C 244.057 96.562 246.296 94.323 246.296 91.562 L 246.296 85.3"
        fill="#ffffff"
        fill-opacity="0"
        stroke="#00ff00"
        stroke-opacity="0"
        stroke-width="3.058"
        stroke-linecap="round"
        stroke-linejoin="round"
        stroke-miterlimit="3.8"/>
</svg>
