<svg
    xmlns="http://www.w3.org/2000/svg"
    viewBox="0 0 294 98"
    id="vector"
    width="294px"
    height="98px">
    <path
        id="top"
        d="M 11.831 10.606 L 282.419 10.606 C 283.308 10.606 284.162 10.96 284.791 11.589 C 285.42 12.217 285.773 13.071 285.773 13.96 L 285.773 23.191 C 285.773 24.081 285.42 24.934 284.791 25.563 C 284.162 26.191 283.308 26.545 282.419 26.545 L 11.831 26.545 C 10.942 26.545 10.088 26.191 9.46 25.563 C 8.831 24.934 8.477 24.081 8.477 23.191 L 8.477 13.96 C 8.477 13.071 8.831 12.217 9.46 11.589 C 10.088 10.96 10.942 10.606 11.831 10.606 Z"
        fill="#00ff00"
        fill-opacity="0.823225205978039"
        stroke-width="1"/>
    <path
        id="bottom"
        d="M 52.956 60 L 241.296 60 C 242.622 60 243.894 60.527 244.832 61.464 C 245.769 62.402 246.296 63.674 246.296 65 L 246.296 93.143 C 246.296 94.469 245.769 95.741 244.832 96.679 C 243.894 97.616 242.622 98.143 241.296 98.143 L 52.956 98.143 C 51.63 98.143 50.358 97.616 49.42 96.679 C 48.483 95.741 47.956 94.469 47.956 93.143 L 47.956 65 C 47.956 63.674 48.483 62.402 49.42 61.464 C 50.358 60.527 51.63 60 52.956 60 Z"
        fill="#00ff00"
        fill-opacity="0"
        stroke-width="1"/>
    <path
        id="bottom_res"
        d="M 47.956 85.3 L 47.956 91.562 C 47.956 94.323 50.195 96.562 52.956 96.562 L 241.296 96.562 C 244.057 96.562 246.296 94.323 246.296 91.562 L 246.296 85.3"
        fill="#ffffff"
        fill-opacity="0"
        stroke="#00ff00"
        stroke-opacity="0"
        stroke-width="3.058"
        stroke-linecap="round"
        stroke-linejoin="round"
        stroke-miterlimit="3.8"/>
</svg>
