<svg
    xmlns="http://www.w3.org/2000/svg"
    viewBox="0 0 294 98"
    id="vector"
    width="294px"
    height="98px">
    <path
        id="top"
        d="M 30.114 32.565 L 264.138 32.565 C 265.221 32.565 266.26 32.995 267.027 33.761 C 267.793 34.527 268.223 35.567 268.223 36.65 L 268.223 54.289 C 268.223 55.373 267.793 56.412 267.027 57.178 C 266.26 57.944 265.221 58.374 264.138 58.374 L 30.114 58.374 C 29.03 58.374 27.991 57.944 27.225 57.178 C 26.459 56.412 26.028 55.373 26.028 54.289 L 26.028 36.65 C 26.028 35.567 26.459 34.527 27.225 33.761 C 27.991 32.995 29.03 32.565 30.114 32.565 Z"
        fill="#00ff00"
        fill-opacity="0.4572517398168714"
        stroke-width="1"/>
    <path
        id="bottom"
        d="M 52.956 60 L 241.296 60 C 242.622 60 243.894 60.527 244.832 61.464 C 245.769 62.402 246.296 63.674 246.296 65 L 246.296 93.143 C 246.296 94.469 245.769 95.741 244.832 96.679 C 243.894 97.616 242.622 98.143 241.296 98.143 L 52.956 98.143 C 51.63 98.143 50.358 97.616 49.42 96.679 C 48.483 95.741 47.956 94.469 47.956 93.143 L 47.956 65 C 47.956 63.674 48.483 62.402 49.42 61.464 C 50.358 60.527 51.63 60 52.956 60 Z"
        fill="#00ff00"
        fill-opacity="0"
        stroke-width="1"/>
    <path
        id="bottom_res"
        d="M 47.956 85.3 L 47.956 91.562 C 47.956 94.323 50.195 96.562 52.956 96.562 L 241.296 96.562 C 244.057 96.562 246.296 94.323 246.296 91.562 L 246.296 85.3"
        fill="#ffffff"
        fill-opacity="0"
        stroke="#00ff00"
        stroke-opacity="0"
        stroke-width="3.058"
        stroke-linecap="round"
        stroke-linejoin="round"
        stroke-miterlimit="3.8"/>
</svg>
