<svg
    xmlns="http://www.w3.org/2000/svg"
    viewBox="0 0 294 98"
    id="vector"
    width="294px"
    height="98px">
    <path
        id="top"
        d="M 6.958 4.753 L 287.292 4.753 C 288.13 4.753 288.934 5.086 289.526 5.679 C 290.118 6.271 290.451 7.075 290.451 7.912 L 290.451 14.902 C 290.451 15.74 290.118 16.543 289.526 17.136 C 288.934 17.728 288.13 18.06 287.292 18.06 L 6.958 18.06 C 6.121 18.06 5.316 17.728 4.725 17.136 C 4.132 16.543 3.799 15.74 3.799 14.902 L 3.799 7.912 C 3.799 7.075 4.132 6.271 4.725 5.679 C 5.316 5.086 6.121 4.753 6.958 4.753 Z"
        fill="#00ff00"
        fill-opacity="0.9207757834293515"
        stroke-width="1"/>
    <path
        id="bottom"
        d="M 52.956 60 L 241.296 60 C 242.622 60 243.894 60.527 244.832 61.464 C 245.769 62.402 246.296 63.674 246.296 65 L 246.296 93.143 C 246.296 94.469 245.769 95.741 244.832 96.679 C 243.894 97.616 242.622 98.143 241.296 98.143 L 52.956 98.143 C 51.63 98.143 50.358 97.616 49.42 96.679 C 48.483 95.741 47.956 94.469 47.956 93.143 L 47.956 65 C 47.956 63.674 48.483 62.402 49.42 61.464 C 50.358 60.527 51.63 60 52.956 60 Z"
        fill="#00ff00"
        fill-opacity="0"
        stroke-width="1"/>
    <path
        id="bottom_res"
        d="M 47.956 85.3 L 47.956 91.562 C 47.956 94.323 50.195 96.562 52.956 96.562 L 241.296 96.562 C 244.057 96.562 246.296 94.323 246.296 91.562 L 246.296 85.3"
        fill="#ffffff"
        fill-opacity="0"
        stroke="#00ff00"
        stroke-opacity="0.08510548160555106"
        stroke-width="3.058"
        stroke-linecap="round"
        stroke-linejoin="round"
        stroke-miterlimit="3.8"/>
</svg>
